<?xml version="1.0" standalone="no"?>
<!DOCTYPE svg PUBLIC "-//W3C//DTD SVG 20010904//EN"
 "http://www.w3.org/TR/2001/REC-SVG-20010904/DTD/svg10.dtd">
<svg version="1.0" xmlns="http://www.w3.org/2000/svg"
 width="1280.000000pt" height="640.000000pt" viewBox="0 0 1280.000000 640.000000"
 preserveAspectRatio="xMidYMid meet">
<metadata>
Created by potrace 1.15, written by Peter Selinger 2001-2017
</metadata>
<g transform="translate(0.000000,640.000000) scale(0.100000,-0.100000)"
fill="#000000" stroke="none">
<path d="M7957 5674 c-24 -13 -39 -14 -102 -3 -99 16 -145 8 -208 -34 -50 -33
-57 -35 -167 -41 -106 -6 -117 -9 -143 -33 -15 -15 -33 -44 -39 -66 -6 -21
-20 -43 -31 -48 -22 -13 -206 -38 -225 -31 -11 4 -9 9 5 23 13 13 44 21 111
27 51 5 96 13 100 16 27 28 -130 35 -203 10 -85 -28 -199 -45 -375 -53 -178
-9 -209 -15 -258 -51 -18 -14 -55 -24 -117 -31 -94 -11 -143 -27 -135 -44 3
-6 16 -9 30 -7 101 13 146 12 164 -1 26 -19 15 -32 -41 -47 -55 -13 -76 -27
-65 -44 4 -6 7 -36 7 -66 0 -48 2 -55 20 -55 16 0 22 10 31 56 12 62 20 79 36
79 7 0 8 -18 4 -52 -11 -84 16 -43 54 80 29 95 34 105 63 117 117 47 258 7
171 -50 -20 -13 -23 -19 -14 -31 17 -19 4 -68 -15 -60 -10 4 -15 -1 -15 -14 0
-11 -6 -20 -14 -20 -10 0 -14 -20 -14 -86 0 -47 -6 -91 -11 -98 -7 -8 -46 -16
-92 -20 -68 -6 -84 -5 -99 9 -22 20 -22 20 -39 -99 -6 -37 -12 -70 -15 -73 -9
-9 -81 -23 -122 -23 -70 0 -80 40 -14 54 14 2 37 7 53 11 18 3 27 12 27 24 0
11 8 22 18 24 9 2 6 3 -8 1 -14 -1 -54 -6 -89 -10 l-64 -7 7 186 c7 184 7 186
-15 197 -47 26 -181 8 -247 -32 -24 -15 -60 -22 -125 -27 -51 -4 -101 -12
-112 -18 -11 -6 -33 -37 -50 -69 -24 -47 -36 -59 -63 -66 -59 -15 -53 -46 26
-130 54 -58 52 -78 -12 -78 -50 0 -79 -21 -74 -53 3 -19 9 -21 52 -18 45 2 48
1 43 -18 -4 -15 2 -26 18 -37 13 -8 32 -33 42 -53 19 -38 19 -39 0 -51 -14 -8
-22 -9 -30 -1 -30 30 -141 -1 -157 -44 -8 -22 -13 -24 -30 -15 -29 16 -25 35
15 67 40 32 44 43 14 43 -15 0 -20 5 -17 23 2 17 11 23 38 26 35 4 35 4 -15
15 l-50 11 0 173 c0 200 1 201 89 203 28 0 60 4 71 8 19 8 19 8 -2 19 -54 29
-165 4 -407 -92 -71 -28 -130 -55 -130 -61 -1 -5 13 -12 29 -15 23 -4 29 -11
27 -25 -1 -11 -6 -90 -11 -176 -9 -153 -21 -206 -43 -193 -8 5 -9 42 -4 123 4
64 8 130 9 146 2 26 -2 30 -24 33 -31 4 -99 -22 -99 -37 0 -6 12 -11 26 -11
26 0 26 0 19 -58 -5 -47 -3 -61 9 -71 27 -23 18 -40 -26 -51 -82 -21 -138 -42
-138 -51 0 -16 51 -22 92 -10 22 7 43 10 46 7 9 -9 -31 -35 -54 -36 -19 0 -70
-38 -61 -46 2 -2 44 4 94 13 111 19 140 14 158 -31 8 -19 20 -37 27 -39 9 -4
8 -10 -6 -21 -22 -18 -67 -21 -82 -6 -5 5 -24 6 -49 0 -92 -22 -141 -7 -107
33 14 16 13 17 -12 17 -15 0 -38 11 -51 25 -33 32 -33 83 2 202 15 51 24 95
20 99 -14 14 -28 -13 -58 -109 -17 -56 -36 -107 -42 -113 -7 -7 -41 -21 -77
-33 -117 -38 -140 -71 -50 -71 27 0 51 -4 54 -9 9 -14 -55 -35 -109 -36 l-50
0 1 50 c1 82 22 161 51 189 31 31 43 33 43 7 0 -18 2 -18 70 3 38 13 73 25 76
28 3 4 -13 19 -36 34 l-42 28 -83 -41 -83 -42 -6 -48 c-10 -72 -46 -172 -64
-182 -10 -5 -48 -11 -87 -12 l-70 -4 1 51 c3 97 49 144 144 144 52 0 64 12 31
30 -37 19 -95 12 -144 -19 -50 -32 -55 -45 -77 -171 -18 -103 -16 -100 -68
-100 -28 0 -65 -9 -92 -23 l-45 -22 63 -3 c34 -2 62 -7 62 -11 0 -13 -74 -43
-111 -44 -34 -2 -34 -2 -33 43 0 49 20 98 44 111 8 5 41 13 73 19 68 14 66 30
-4 30 -42 0 -50 3 -47 17 2 10 15 23 31 30 15 7 39 19 54 26 14 6 26 17 27 22
2 19 -39 15 -84 -7 -41 -21 -48 -30 -85 -115 -41 -93 -68 -133 -91 -133 -24 0
-124 -41 -124 -51 0 -6 28 -9 68 -7 38 2 68 -1 70 -7 5 -14 -107 -56 -138 -53
-25 3 -25 3 -23 106 1 57 7 117 13 133 13 30 33 39 133 56 68 11 54 28 -23 27
-46 0 -77 -7 -106 -22 -47 -24 -49 -31 -60 -171 l-7 -91 -37 -10 c-20 -5 -58
-13 -83 -16 -44 -6 -47 -5 -57 20 -5 15 -10 45 -10 66 0 34 5 43 37 65 21 14
45 25 54 25 23 0 69 39 49 41 -46 4 -102 -19 -176 -76 -30 -23 -56 -35 -78
-35 -43 0 -137 -28 -158 -47 -13 -12 -15 -21 -7 -40 16 -42 11 -52 -32 -63
-37 -10 -59 -33 -46 -46 3 -3 21 -1 41 6 25 8 41 8 54 1 20 -10 38 -58 27 -69
-3 -3 -35 -9 -71 -13 -99 -10 -102 -23 -8 -40 88 -15 92 -17 100 -51 5 -26 2
-35 -16 -50 -28 -23 -54 -22 -108 2 -45 20 -47 34 -8 50 18 8 17 9 -11 9 -41
1 -60 29 -73 106 -5 32 -17 66 -26 76 -10 11 -15 21 -13 23 17 14 55 27 103
32 62 8 77 18 47 33 -37 20 -118 -7 -179 -60 -24 -22 -43 -29 -73 -29 -51 0
-75 -12 -120 -61 -27 -29 -45 -39 -67 -39 -64 0 -158 -39 -213 -88 -52 -47
-53 -47 -141 -53 -99 -7 -114 -16 -143 -79 l-18 -40 -89 0 c-86 0 -91 -1 -119
-30 -22 -22 -29 -37 -27 -57 4 -39 28 -35 42 7 10 32 15 35 66 43 86 13 172 0
214 -31 53 -41 52 -49 -10 -57 -29 -3 -56 -11 -59 -16 -4 -5 -17 -9 -30 -9
-14 0 -39 -13 -57 -30 -36 -32 -25 -39 22 -15 16 8 52 20 80 26 42 9 55 8 75
-5 13 -9 30 -16 38 -16 7 0 22 -6 33 -14 19 -15 19 -15 -1 -30 -11 -9 -43 -23
-71 -31 -29 -9 -62 -25 -75 -36 -29 -25 -62 -39 -93 -39 -13 0 -43 -11 -67
-23 -24 -13 -67 -31 -95 -41 -54 -18 -94 -48 -94 -70 0 -26 -30 -27 -40 -1
-13 34 -86 105 -121 117 -29 10 -30 13 -24 52 12 79 40 107 133 126 64 14 106
3 196 -51 37 -22 70 -38 74 -35 8 9 -48 65 -72 72 -12 4 -35 17 -52 30 -62 48
-218 23 -286 -46 -21 -21 -38 -47 -38 -58 0 -25 -27 -42 -65 -42 -42 0 -149
-56 -184 -95 -17 -20 -31 -46 -31 -59 0 -32 -16 -43 -80 -51 -74 -10 -92 -18
-140 -61 -39 -35 -41 -41 -38 -83 3 -50 12 -43 -99 -71 -26 -6 -64 -30 -100
-60 -39 -34 -84 -60 -138 -80 -126 -48 -205 -111 -205 -164 0 -22 42 -40 74
-32 32 8 33 30 4 50 -21 15 -21 16 -2 37 40 46 193 96 239 79 54 -20 72 -5 38
32 -16 17 -15 20 18 54 41 42 119 68 187 61 55 -5 163 -47 159 -62 -2 -5 -20
-18 -41 -29 -34 -17 -38 -17 -55 -2 -20 19 -47 21 -57 5 -3 -6 -44 -28 -89
-49 -46 -21 -88 -48 -95 -59 -11 -22 -82 -61 -184 -101 -110 -44 -226 -130
-226 -168 0 -5 39 -13 87 -17 48 -4 94 -11 102 -15 9 -5 24 -11 34 -14 17 -5
24 -36 8 -36 -5 0 -33 11 -63 25 -64 30 -87 31 -136 6 -20 -10 -59 -26 -87
-35 -64 -21 -146 -82 -166 -125 -10 -21 -45 -55 -95 -90 -43 -31 -88 -71 -99
-89 -24 -38 -35 -40 -35 -8 0 29 37 85 99 151 71 75 75 83 62 99 -18 22 0 48
77 112 67 55 67 55 119 48 59 -7 72 7 21 23 l-33 9 48 22 c47 21 55 42 17 42
-37 0 -219 -118 -268 -174 -17 -20 -36 -55 -42 -78 -7 -24 -36 -74 -65 -113
-29 -38 -61 -87 -71 -108 -17 -35 -17 -41 -1 -107 l17 -71 -26 -72 c-57 -157
-69 -204 -56 -232 7 -14 28 -35 47 -46 39 -23 44 -39 18 -60 -44 -37 -56 -144
-24 -215 24 -52 64 -84 107 -84 30 0 36 -5 58 -53 29 -60 87 -120 131 -134 24
-8 37 -24 67 -84 20 -41 49 -86 65 -102 30 -28 179 -95 328 -148 124 -43 196
-51 410 -43 151 5 211 3 295 -10 58 -9 155 -21 215 -26 61 -6 138 -17 172 -25
109 -25 123 4 40 82 -29 28 -66 57 -83 66 -43 22 -154 57 -182 57 l-24 0 23
-20 c21 -17 21 -19 6 -20 -10 0 -30 9 -46 21 -25 19 -50 22 -237 30 -508 23
-587 31 -629 69 -11 10 -44 30 -73 44 -67 34 -124 91 -158 158 -90 177 -86
328 11 486 27 42 63 104 82 136 19 33 47 75 64 94 53 60 151 140 209 171 31
17 71 48 89 71 40 50 126 94 315 162 77 28 195 74 261 103 66 29 166 69 223
90 79 29 107 44 124 67 25 36 73 58 126 58 47 0 94 16 226 76 66 31 158 61
271 89 93 23 208 54 255 68 93 28 243 61 330 72 44 6 60 14 85 40 29 32 37 34
185 59 85 14 186 35 224 46 73 21 178 41 316 60 47 7 96 19 108 27 36 22 103
39 267 68 166 28 195 37 195 60 0 23 42 35 118 34 94 0 146 -11 150 -30 2 -9
-13 -35 -33 -58 -39 -48 -43 -68 -18 -86 16 -12 14 -16 -15 -49 -35 -40 -42
-80 -14 -91 34 -13 312 -17 569 -7 251 10 264 11 317 36 30 14 64 26 75 26 35
0 32 18 -9 51 -29 23 -37 35 -28 40 7 4 68 13 134 20 93 9 131 10 167 1 96
-25 127 -12 113 44 -5 18 -19 31 -46 41 -39 16 -58 40 -22 29 11 -4 42 6 75
24 31 16 65 30 76 30 49 0 25 48 -46 91 -18 12 -33 26 -33 33 0 15 83 26 199
26 42 0 94 6 116 12 25 7 206 14 485 18 376 6 468 11 595 29 112 16 222 23
430 27 154 3 286 8 294 10 23 7 -7 33 -46 40 -49 9 -27 19 82 38 183 31 385
40 385 18 0 -4 -12 -16 -27 -27 -33 -27 -24 -49 14 -34 15 5 47 25 72 43 76
55 110 70 137 57 28 -13 64 -67 64 -98 0 -28 40 -134 57 -153 13 -13 16 -13
29 4 8 11 14 30 14 43 0 35 56 91 103 104 23 6 50 15 59 20 10 5 24 9 32 9 16
0 46 -26 46 -41 0 -15 -22 -10 -36 9 -10 13 -15 14 -25 5 -16 -16 6 -42 57
-69 34 -18 36 -18 49 -1 15 20 9 54 -13 79 -14 16 -11 22 34 65 l49 47 156 -2
c86 0 263 -9 395 -18 322 -23 569 -23 591 -2 23 24 11 42 -46 74 -52 28 -69
52 -28 40 167 -50 812 -95 1387 -96 151 -1 298 -5 325 -10 28 -5 148 -12 267
-16 l217 -7 6 36 c4 21 11 37 15 37 5 0 20 -14 33 -32 l25 -31 56 17 c31 10
56 22 56 27 0 17 -58 38 -140 49 -123 17 -170 29 -201 50 -32 24 -78 33 -279
60 -362 48 -869 122 -925 135 -33 7 -88 21 -123 29 -45 11 -69 13 -82 6 -10
-5 -43 -9 -72 -9 -29 1 -45 3 -35 6 10 3 16 10 14 16 -2 8 -48 14 -138 17
-117 4 -139 8 -170 28 -31 19 -67 26 -220 42 -101 10 -231 26 -288 34 -129 20
-175 20 -226 1 -61 -22 -152 -18 -236 9 -41 13 -89 27 -106 31 -33 7 -50 21
-39 32 3 3 49 10 102 14 53 5 120 15 150 24 54 16 54 16 89 -11 l35 -26 113
10 c61 6 146 14 187 17 41 4 94 11 116 17 40 9 44 8 104 -36 48 -36 71 -46
100 -46 46 0 88 -14 115 -40 18 -17 45 -19 310 -23 273 -4 297 -6 415 -32 115
-26 144 -28 365 -31 132 -1 283 -8 335 -16 53 -7 183 -13 293 -13 197 0 199 0
218 24 25 31 24 69 -2 97 -24 26 -20 70 8 81 15 6 31 -7 60 -53 11 -18 13 -17
38 14 15 17 36 32 47 32 12 0 29 6 37 14 9 8 32 18 51 23 25 7 36 15 38 32 4
27 -35 161 -47 161 -4 0 -29 29 -56 65 l-47 65 -132 0 c-108 0 -138 4 -174 20
-24 11 -62 25 -85 31 -23 6 -52 20 -66 30 -25 20 -40 13 -41 -19 0 -34 230
-102 347 -102 61 0 75 -3 93 -22 11 -12 20 -25 20 -30 0 -4 21 -18 47 -31 47
-22 68 -47 39 -47 -9 0 -16 -7 -16 -15 0 -8 7 -15 15 -15 25 0 17 -17 -16 -30
-28 -12 -32 -11 -65 21 -18 18 -34 41 -34 51 0 27 -46 70 -72 66 -35 -5 -32
-26 6 -49 25 -15 43 -36 58 -71 13 -31 34 -59 57 -74 l36 -25 -40 7 c-22 4
-50 11 -63 15 -13 5 -59 9 -102 9 -43 0 -91 5 -107 11 -15 6 -39 12 -53 13
-20 1 -28 9 -38 40 -14 43 -29 66 -43 66 -17 0 -9 -44 13 -67 l21 -23 -21 0
c-12 0 -23 8 -27 19 -3 11 -12 22 -20 25 -18 6 -20 47 -4 63 36 36 -33 63
-158 63 l-83 0 0 -34 c0 -52 9 -66 42 -66 19 0 28 -4 25 -12 -3 -9 -25 -12
-77 -10 -56 2 -76 -1 -90 -13 -29 -26 -54 -11 -68 42 -15 55 -2 72 36 47 13
-9 33 -14 43 -11 11 3 23 -1 28 -11 7 -13 12 -14 24 -4 17 15 27 46 18 59 -8
12 -124 66 -179 83 -42 13 -43 13 -71 -16 -16 -16 -39 -37 -52 -46 -20 -13
-22 -20 -13 -35 12 -18 22 -19 82 -7 36 7 46 -10 11 -21 -28 -9 -19 -29 15
-33 36 -4 28 -24 -14 -35 -45 -11 -74 -2 -88 27 -6 14 -23 28 -37 32 -30 8
-31 17 -4 55 27 38 8 37 -31 -1 -47 -46 -60 -40 -39 18 8 23 8 41 -1 67 -9 28
-8 48 6 105 9 39 15 73 12 75 -2 3 -24 1 -49 -3 -50 -9 -62 -31 -33 -63 16
-18 16 -22 1 -54 -16 -34 -40 -45 -52 -24 -4 5 -31 21 -61 34 -41 18 -54 29
-54 45 0 19 4 21 29 15 24 -5 29 -2 35 17 5 19 8 20 16 8 5 -8 10 -24 10 -36
0 -25 18 -44 42 -44 22 0 24 23 3 40 -10 9 -15 31 -15 72 0 41 -3 57 -11 52
-13 -8 -53 38 -74 84 -23 52 -95 69 -95 22 0 -20 -1 -20 -30 -5 -16 8 -36 15
-45 15 -9 0 -15 9 -15 25 0 14 -7 28 -15 31 -21 8 -75 -15 -75 -32 0 -7 28
-28 61 -46 85 -44 113 -75 127 -139 14 -59 11 -64 -46 -75 -38 -7 -62 8 -62
42 0 16 -10 28 -31 40 -34 17 -199 179 -199 195 0 5 17 9 38 9 46 0 72 14 56
30 -18 18 -150 31 -231 24 -59 -6 -73 -10 -73 -24 0 -22 64 -56 139 -74 71
-17 82 -23 61 -37 -16 -11 -290 -5 -347 7 -98 20 52 -67 177 -103 30 -8 56
-17 58 -18 2 -1 -10 -15 -26 -31 -25 -25 -40 -64 -78 -191 -2 -8 -25 -12 -68
-11 -38 0 -72 -4 -80 -11 -10 -8 -16 -9 -21 -1 -12 19 5 28 65 32 70 5 110 32
93 63 -14 25 -4 62 18 68 22 6 25 39 6 55 -7 6 -42 18 -77 26 -77 17 -126 35
-162 58 -14 9 -39 20 -54 24 -16 4 -39 15 -51 26 -20 19 -21 19 -31 1 -10 -17
-13 -16 -42 12 -18 17 -36 41 -42 55 -11 28 5 104 28 135 12 16 18 18 34 7 23
-14 109 -16 142 -3 13 5 32 12 43 16 42 13 -9 22 -102 17 -94 -5 -96 -5 -82
15 8 11 51 52 97 92 98 87 109 108 37 74 -30 -14 -41 -15 -68 -5 -19 7 -40 12
-48 12 -8 0 -21 5 -29 10 -13 9 -13 11 0 20 8 5 33 10 55 10 22 0 67 7 100 15
88 21 96 20 93 -12 -3 -25 0 -28 44 -34 96 -14 238 -73 238 -99 0 -5 19 -22
42 -36 l42 -27 -22 -18 c-41 -33 -257 -63 -273 -38 -7 11 -19 11 -76 -4 -165
-43 -285 -99 -261 -122 3 -3 33 -13 67 -21 56 -15 64 -15 86 0 37 24 80 20
108 -10 20 -22 31 -25 73 -22 62 4 67 27 9 44 -26 7 -39 16 -38 26 4 20 -79
17 -139 -6 -54 -21 -83 -18 -47 5 13 9 60 30 103 48 73 30 82 32 121 21 57
-16 245 2 289 28 48 28 47 63 -3 113 -43 42 -54 79 -23 79 10 0 65 -24 122
-54 58 -30 136 -62 175 -71 72 -16 155 -58 155 -77 0 -17 -68 -4 -140 27 -74
31 -120 42 -120 28 0 -20 123 -74 256 -113 88 -25 120 -49 134 -101 14 -51 30
-50 30 1 0 64 -23 109 -60 116 -31 7 -80 55 -80 78 0 28 -41 65 -78 71 -118
18 -152 28 -212 64 -82 49 -179 78 -298 90 -78 8 -103 16 -157 45 -72 41 -83
42 -149 20 -44 -15 -48 -15 -67 1 -16 15 -23 16 -45 7 -38 -18 -68 -15 -134
13 -76 32 -92 31 -183 -5 -96 -38 -133 -38 -203 1 -80 45 -108 43 -246 -24
-65 -31 -123 -57 -129 -57 -7 0 -28 5 -46 12 -26 9 -40 9 -67 0 -36 -13 -62
-5 -211 69 -33 16 -66 29 -72 29 -21 0 -15 -18 12 -36 31 -20 31 -25 1 -57
l-24 -26 -38 20 c-21 10 -45 19 -54 19 -8 0 -22 4 -29 9 -12 7 -5 14 27 27 24
9 47 26 53 37 12 21 6 21 -81 1 -19 -4 -39 4 -75 28 -28 19 -59 38 -70 42 -73
27 -497 42 -552 19 -18 -7 -58 -13 -90 -14 -59 0 -56 -5 12 -25 20 -7 30 -16
30 -29 0 -18 -7 -20 -87 -20 -56 0 -91 -4 -99 -12 -11 -11 -10 -13 2 -13 7 0
20 -4 27 -9 19 -12 -30 -108 -63 -123 -39 -18 -30 -28 24 -28 56 0 68 10 49
39 -10 17 -9 26 9 58 19 33 27 38 57 38 33 1 36 -2 36 -29 l0 -30 30 29 c17
16 45 52 63 80 17 27 36 53 42 58 5 4 57 6 115 5 93 -3 105 -5 108 -22 6 -28
-15 -36 -93 -36 -84 0 -119 -15 -59 -25 110 -17 122 -30 75 -82 -26 -29 -36
-33 -80 -33 -62 0 -112 -17 -91 -30 8 -6 37 -10 63 -10 34 0 47 -4 45 -12 -3
-8 -33 -15 -81 -18 -42 -3 -79 -9 -82 -12 -5 -5 90 -24 154 -31 8 -1 19 -17
23 -35 l9 -34 85 107 c79 101 84 109 84 155 0 61 17 99 47 106 53 14 196 -19
215 -49 13 -20 9 -30 -8 -23 -9 4 -22 2 -29 -4 -8 -7 -25 -5 -55 5 -48 17 -86
19 -94 6 -8 -12 66 -41 103 -41 35 0 60 -25 43 -42 -9 -9 -15 -8 -25 6 -26 36
-49 16 -76 -69 -14 -45 -34 -94 -44 -109 -19 -28 -19 -28 -112 -24 -92 4 -94
3 -100 -20 -6 -25 -57 -52 -100 -52 -31 0 -31 -2 0 -36 14 -15 25 -30 25 -33
0 -4 -14 -15 -31 -25 -36 -21 -35 -46 4 -59 37 -12 45 -3 54 62 10 66 33 82
33 22 0 -22 4 -43 10 -46 5 -3 33 1 62 10 61 18 127 19 163 3 22 -10 24 -16
19 -43 -9 -48 26 -110 71 -126 52 -19 27 -35 -30 -19 -51 14 -54 17 -75 80
-19 57 -41 61 -106 21 -41 -27 -58 -31 -114 -31 -39 0 -73 5 -85 14 -18 12
-29 10 -94 -16 -41 -16 -98 -32 -127 -35 l-54 -6 0 47 0 46 53 0 c59 0 97 8
97 21 0 10 -72 31 -92 27 -19 -4 -23 56 -4 71 12 10 20 5 46 -28 18 -22 42
-41 54 -43 11 -2 20 -9 18 -16 -2 -9 6 -12 20 -10 23 3 25 13 12 56 -5 17 -2
22 10 22 36 0 3 19 -42 25 -86 11 -152 26 -152 34 0 4 10 13 23 19 16 8 17 11
6 11 -29 2 -42 27 -24 45 24 24 15 49 -25 68 -37 19 -120 25 -120 9 0 -6 21
-13 48 -16 93 -13 98 -18 57 -67 -14 -16 -25 -36 -25 -44 0 -11 -17 -14 -80
-14 -44 0 -80 4 -80 8 0 5 18 14 40 21 57 17 60 32 6 25 l-46 -7 0 66 c0 63 2
68 60 157 34 51 68 110 77 131 11 28 23 41 42 45 53 12 57 14 41 24 -20 13
-30 12 -63 -6z m-107 -43 c32 -9 36 -31 12 -61 -16 -20 -31 -25 -86 -28 -69
-5 -87 -20 -46 -42 11 -6 20 -17 20 -24 0 -22 -51 -65 -91 -78 -44 -13 -52
-28 -15 -28 33 0 42 -16 17 -29 -29 -16 -87 -13 -105 4 -9 9 -20 35 -27 58
-20 77 -66 103 -134 77 -31 -12 -24 -30 11 -30 18 0 24 -5 24 -22 l0 -21 25
23 c29 27 49 17 43 -21 -2 -17 -13 -26 -43 -35 -22 -7 -58 -22 -80 -33 -21
-12 -47 -21 -56 -21 -9 0 -23 -7 -30 -17 -13 -15 -11 -16 14 -9 26 6 27 5 17
-14 -10 -19 -8 -20 39 -20 65 0 81 7 81 36 0 20 5 24 30 24 17 0 33 -6 36 -14
3 -8 -5 -46 -17 -85 l-23 -71 -143 0 c-136 0 -143 1 -143 20 0 29 -17 24 -23
-7 -8 -43 1 -53 51 -53 l45 0 -34 -23 c-18 -12 -36 -33 -39 -47 -6 -24 -9 -25
-90 -28 -122 -3 -127 -5 -141 -54 -15 -58 -14 -107 3 -125 13 -12 24 -11 86
10 39 13 78 30 87 37 25 21 6 32 -45 25 -29 -4 -50 -3 -54 4 -7 10 35 24 112
36 46 7 49 3 36 -64 -17 -81 -168 -152 -242 -112 -25 13 -43 92 -45 192 -1 77
13 103 64 113 53 10 108 -14 62 -27 -24 -7 85 3 117 10 l25 6 -30 13 c-18 8
-70 13 -134 14 l-103 0 7 28 c12 52 89 217 111 239 22 21 127 43 142 29 15
-16 -34 -82 -78 -103 -36 -19 -40 -23 -20 -23 14 0 32 -5 40 -10 12 -7 7 -12
-20 -23 -80 -32 -78 -30 -46 -35 46 -6 164 36 185 67 10 14 46 81 80 149 35
67 70 126 80 131 9 5 50 14 91 20 62 8 80 7 107 -6 39 -18 56 -13 79 24 38 60
43 63 113 62 36 -1 77 -4 91 -8z m1900 -116 c29 -24 52 -35 74 -35 39 0 50 -8
35 -27 -17 -19 -74 -16 -119 7 -41 21 -136 28 -125 10 3 -5 21 -10 40 -10 19
0 37 -4 40 -10 3 -5 -3 -10 -14 -10 -12 0 -21 -4 -21 -9 0 -12 37 -21 88 -21
42 0 56 -13 26 -24 -9 -3 -41 -6 -72 -6 -65 0 -85 -9 -76 -33 4 -12 -7 -32
-35 -62 -48 -52 -50 -66 -16 -107 14 -16 25 -34 25 -40 0 -11 -35 -4 -88 18
-32 13 -34 16 -29 50 3 20 24 59 46 88 23 29 44 68 47 87 l6 34 -46 -50 c-25
-27 -54 -62 -63 -77 -10 -16 -21 -28 -25 -28 -14 0 -20 73 -9 111 13 42 56 99
75 99 7 0 47 18 90 40 42 22 83 40 91 40 7 0 32 -16 55 -35z m389 -12 c27 -21
57 -43 67 -50 30 -19 -103 -17 -140 2 -37 19 -53 19 -64 -1 -10 -18 -32 -11
-32 10 0 7 12 24 28 38 52 49 79 49 141 1z m-2329 -15 c0 -7 -12 -37 -25 -67
-14 -30 -30 -75 -35 -100 -14 -64 -40 -131 -51 -131 -5 0 -9 -9 -9 -19 0 -36
-32 -61 -87 -68 -28 -3 -64 -2 -79 1 l-27 7 31 19 c38 24 40 42 7 64 -32 21
-32 49 1 75 24 19 48 27 126 45 36 8 62 37 76 84 21 68 72 132 72 90z m1024
-13 c15 -22 21 -24 56 -19 35 6 40 4 40 -13 0 -10 -11 -34 -25 -53 -30 -41
-32 -53 -5 -45 16 5 20 2 20 -16 0 -18 2 -20 16 -8 8 7 22 25 30 41 15 30 34
37 34 14 0 -14 -71 -112 -97 -133 -9 -7 -36 -9 -74 -6 -50 5 -59 3 -59 -11 0
-9 -8 -16 -17 -15 -22 1 -63 17 -45 18 21 2 13 21 -13 31 -27 10 -26 24 5 70
9 14 34 58 55 98 20 39 43 72 50 72 7 0 20 -11 29 -25z m367 -17 c12 -18 6
-31 -19 -44 -32 -16 -61 -44 -94 -91 -27 -40 -28 -43 -8 -43 26 0 25 -16 -3
-105 -22 -66 -24 -70 -56 -73 -43 -4 -61 13 -61 59 0 42 -12 49 -42 22 -13
-11 -18 -12 -18 -3 0 7 29 43 65 81 65 70 125 160 125 191 0 9 6 19 13 22 21
9 89 -2 98 -16z m155 -32 c7 -8 19 -16 26 -19 10 -3 5 -19 -15 -58 l-28 -54
27 -22 c26 -21 27 -24 16 -61 -15 -49 -45 -88 -60 -78 -8 5 -12 44 -12 115 0
84 -3 111 -15 121 -19 16 -19 29 2 52 19 22 39 23 59 4z m657 -3 c40 -4 46 -7
36 -19 -8 -9 -33 -14 -75 -14 -36 0 -64 -4 -64 -10 0 -14 140 -13 196 1 41 11
48 10 74 -10 16 -11 43 -21 59 -21 41 0 33 -18 -24 -54 -25 -15 -51 -36 -58
-46 -19 -27 -85 -63 -102 -56 -14 5 -14 9 0 37 22 41 12 75 -25 94 -38 20
-155 32 -164 17 -6 -10 7 -15 102 -41 47 -13 51 -20 22 -46 -24 -21 -27 -47
-5 -39 22 9 19 -5 -12 -48 -19 -28 -23 -42 -15 -50 8 -8 15 -6 27 6 9 9 26 16
38 16 12 0 39 9 60 20 47 25 58 20 46 -22 -5 -17 -6 -49 -3 -70 6 -34 4 -38
-14 -38 -17 0 -24 -11 -36 -51 -9 -28 -18 -67 -22 -87 -14 -80 -44 -93 -44
-20 0 29 7 49 22 65 30 32 15 54 -42 69 -34 8 -45 16 -51 35 -18 69 -56 96
-46 34 4 -27 2 -35 -9 -35 -8 0 -19 11 -24 25 -11 30 -26 32 -40 6 -14 -27 -3
-48 31 -60 23 -8 29 -16 29 -39 0 -62 -53 -58 -80 7 -17 43 -64 61 -203 77
-118 14 -156 26 -129 43 7 4 68 6 135 4 131 -4 162 3 183 44 6 13 22 31 36 42
14 11 31 34 38 51 12 28 10 33 -25 76 -20 25 -36 46 -34 48 2 2 29 20 59 40
42 28 61 35 80 30 14 -3 47 -8 73 -11z m-3038 -23 c4 -6 -14 -54 -39 -108 -43
-94 -56 -131 -73 -217 -8 -37 -12 -40 -48 -47 -22 -4 -79 -7 -127 -7 -69 -1
-88 2 -88 13 0 17 69 217 79 231 4 6 18 36 31 68 14 36 31 62 44 67 30 13 214
12 221 0z m1711 -27 c-11 -11 -19 6 -11 24 8 17 8 17 12 0 3 -10 2 -21 -1 -24z
m1549 27 c-3 -5 -10 -10 -16 -10 -5 0 -9 5 -9 10 0 6 7 10 16 10 8 0 12 -4 9
-10z m-3039 -54 c-20 -53 -43 -76 -52 -53 -6 18 9 52 39 84 28 32 33 21 13
-31z m2034 -12 c0 -4 -10 -23 -22 -42 l-22 -35 32 -27 c49 -41 40 -80 -19 -80
-10 0 -19 -4 -19 -10 0 -5 12 -10 26 -10 38 0 27 -32 -15 -44 -44 -13 -65 12
-56 64 3 19 8 61 11 93 5 45 12 62 32 77 24 19 52 27 52 14z m544 -23 c9 -16
22 -31 31 -34 8 -4 15 -11 15 -17 0 -13 -180 -13 -200 1 -13 9 -13 12 4 22 10
7 32 22 50 34 46 31 82 30 100 -6z m-1104 9 c0 -5 -4 -10 -10 -10 -5 0 -10 5
-10 10 0 6 5 10 10 10 6 0 10 -4 10 -10z m610 -5 c0 -8 -4 -15 -9 -15 -13 0
-22 16 -14 24 11 11 23 6 23 -9z m-3205 -59 c32 -23 11 -43 -67 -61 -40 -9
-78 -21 -85 -27 -21 -17 -4 -27 27 -16 46 15 58 5 62 -49 l3 -48 16 44 c8 25
20 46 26 48 9 3 13 -13 25 -127 3 -21 -2 -25 -42 -32 -63 -11 -99 -27 -111
-50 -18 -34 3 -44 59 -29 95 27 88 30 95 -39 8 -68 21 -100 42 -100 7 0 22
-11 32 -25 18 -25 18 -25 64 -10 92 31 127 -14 71 -91 -58 -80 -129 -124 -199
-124 -28 0 -30 26 -3 33 11 3 24 17 30 32 13 33 13 132 0 140 -5 3 -26 -4 -47
-15 -21 -11 -42 -20 -46 -20 -5 0 -22 -13 -37 -30 -22 -24 -36 -30 -69 -30
-47 0 -57 13 -42 53 10 25 15 27 66 27 66 0 125 22 125 46 0 15 -10 16 -90 10
-49 -4 -90 -4 -90 1 1 20 43 56 73 62 47 10 30 26 -28 26 -47 0 -50 2 -56 30
-4 17 -7 94 -8 171 -1 165 4 177 84 199 66 17 97 18 120 1z m2452 -18 c45 -19
84 -49 78 -59 -9 -14 -56 -11 -107 7 -45 15 -73 44 -43 44 8 0 15 5 15 10 0
13 23 13 57 -2z m923 -36 c0 -13 -12 -22 -22 -16 -10 6 -1 24 13 24 5 0 9 -4
9 -8z m-3631 -26 c10 -12 7 -17 -16 -29 -15 -8 -45 -20 -65 -26 -43 -14 -50
-31 -14 -31 24 0 36 -16 36 -51 0 -10 15 -36 34 -56 39 -44 56 -75 56 -100 0
-14 -7 -10 -29 15 -35 37 -44 39 -105 12 -52 -22 -59 -37 -18 -42 15 -2 26 -8
25 -14 -2 -8 18 -10 65 -7 l67 4 -23 -20 c-42 -36 -158 -63 -190 -43 -17 11
-34 157 -30 267 3 89 3 89 37 112 41 28 150 33 170 9z m2134 7 c17 -16 -19
-33 -68 -33 -62 0 -85 -7 -85 -26 0 -34 84 -45 145 -20 23 10 37 11 41 4 9
-15 -13 -26 -76 -38 -92 -19 -130 -30 -130 -40 0 -4 -3 -15 -6 -24 -5 -13 1
-16 33 -16 21 0 44 5 50 11 8 8 28 9 58 5 40 -6 46 -10 43 -29 -2 -12 -18 -32
-37 -44 -28 -19 -47 -23 -112 -23 l-79 0 0 33 c0 47 37 216 51 233 8 10 34 14
89 14 42 0 80 -3 83 -7z m482 -3 c11 -17 -5 -32 -21 -19 -7 6 -11 15 -8 20 7
12 21 11 29 -1z m415 1 c0 -9 -37 -25 -85 -36 -27 -6 -24 -9 38 -24 79 -20 98
-34 77 -55 -39 -36 -214 -53 -226 -21 -11 27 5 64 34 79 16 9 21 15 11 16 -8
0 -24 7 -35 15 -16 13 -17 16 -4 25 18 12 190 13 190 1z m875 -51 c3 -5 -3
-10 -14 -10 -12 0 -21 5 -21 10 0 6 6 10 14 10 8 0 18 -4 21 -10z m-2287 -42
c-3 -21 -11 -24 -77 -30 -41 -4 -77 -10 -80 -14 -14 -14 37 -34 86 -34 l53 0
0 -44 c0 -60 -26 -89 -110 -122 -39 -15 -70 -33 -70 -40 0 -18 -20 -28 -32
-16 -6 6 -7 30 -3 61 l7 51 39 0 c49 0 54 26 7 38 -40 10 -48 45 -24 97 13 26
27 37 64 49 60 19 81 23 115 25 24 1 28 -3 25 -21z m-1630 -12 c2 -10 1 -29
-3 -44 -5 -20 -8 -23 -16 -11 -14 22 -11 81 4 77 6 -3 14 -13 15 -22z m-476
-118 c2 -73 2 -138 0 -145 -2 -6 -35 -14 -75 -18 -101 -9 -129 -15 -124 -28 2
-7 23 -14 48 -17 46 -5 44 -12 -11 -36 l-25 -11 27 -13 c22 -10 36 -11 67 -2
52 16 104 16 99 0 -5 -13 -88 -50 -142 -62 -25 -6 -28 -5 -23 13 6 25 7 25
-29 6 -38 -20 -51 -19 -64 4 -16 30 -12 206 6 298 l17 83 66 19 c101 30 135
39 148 40 9 1 13 -37 15 -131z m2177 105 c10 -21 9 -29 -3 -41 -23 -23 -48 -8
-40 25 13 52 25 57 43 16z m1509 -10 c2 -8 -5 -13 -17 -13 -12 0 -21 6 -21 16
0 18 31 15 38 -3z m392 -8 c0 -8 -4 -15 -10 -15 -5 0 -10 7 -10 15 0 8 5 15
10 15 6 0 10 -7 10 -15z m-1460 -3 c0 -5 -25 -13 -55 -19 -57 -10 -71 -4 -32
15 26 13 87 15 87 4z m-2395 -27 c0 -10 -6 -20 -12 -22 -8 -3 -13 5 -13 22 0
17 5 25 13 23 6 -3 12 -13 12 -23z m2128 -2 c18 -10 4 -53 -29 -86 -68 -68
-156 -90 -174 -43 -13 36 -1 65 29 72 14 3 44 11 66 17 l40 11 -35 5 c-24 4
-31 9 -22 15 35 22 94 26 125 9z m2006 -17 c7 -8 11 -20 9 -26 -4 -13 -58 33
-58 50 0 13 31 -2 49 -24z m-131 6 c3 -10 -5 -13 -29 -10 -18 2 -34 9 -37 16
-3 10 5 13 29 10 18 -2 34 -9 37 -16z m655 -84 c3 -46 13 -100 22 -122 11 -25
13 -42 7 -48 -14 -14 -32 -1 -32 21 0 9 -7 26 -15 37 -22 29 -18 213 5 199 4
-2 10 -42 13 -87z m-1227 67 c10 -25 -7 -40 -23 -20 -7 11 -13 22 -13 27 0 14
30 9 36 -7z m350 3 c9 -14 -31 -48 -56 -48 -10 0 -23 6 -29 14 -10 11 -7 17
11 30 26 19 64 21 74 4z m-2507 -7 c12 -8 12 -12 2 -24 -15 -19 -148 -34 -164
-18 -15 15 -5 22 55 37 65 15 89 16 107 5z m2941 -5 c0 -8 -5 -18 -11 -22 -14
-8 -33 11 -25 25 10 16 36 13 36 -3z m1529 -16 c34 0 37 -28 7 -58 -26 -26
-27 -27 -42 -8 -7 11 -14 38 -14 60 1 36 2 39 14 24 7 -10 23 -18 35 -18z
m-4769 12 c0 -12 -40 -29 -84 -37 -19 -4 -40 -13 -47 -21 -17 -20 2 -18 74 8
58 21 60 21 73 3 21 -29 0 -43 -80 -54 -38 -6 -72 -15 -77 -22 -4 -6 -2 -25 3
-41 8 -21 7 -33 -1 -41 -16 -16 -14 -23 14 -35 30 -14 32 -32 5 -39 -25 -7
-26 -23 -2 -23 20 0 87 45 110 73 19 22 7 37 -29 37 -16 0 -29 4 -29 10 0 11
29 20 75 23 29 2 30 1 33 -49 2 -43 -2 -57 -30 -99 -50 -73 -131 -104 -209
-80 -19 6 -19 8 -4 19 14 10 18 38 24 138 8 128 27 193 61 209 53 25 120 36
120 21z m80 -32 c0 -10 12 -28 28 -40 23 -19 36 -21 97 -17 39 3 80 8 93 12
38 12 25 -13 -15 -30 -25 -11 -63 -15 -108 -14 l-70 2 2 -34 c3 -57 57 -78
100 -37 12 11 45 29 72 39 61 21 74 6 34 -41 -41 -50 -120 -90 -176 -90 -42 0
-49 3 -58 27 -16 41 -25 258 -11 249 7 -4 12 -16 12 -26z m3383 19 c-8 -8 -16
-8 -30 0 -16 9 -14 10 12 11 21 0 26 -3 18 -11z m-1635 -15 c63 -8 75 -21 28
-29 -37 -7 -94 1 -113 17 -21 17 -15 31 10 25 12 -3 46 -9 75 -13z m1225 1 c0
-5 -3 -19 -5 -30 -2 -14 3 -21 20 -23 17 -3 22 -10 22 -32 0 -35 -16 -48 -25
-20 -5 17 -15 20 -71 20 l-64 0 0 30 c0 46 32 72 83 68 23 -2 41 -7 40 -13z
m-362 -11 c7 -9 47 -33 88 -54 42 -21 91 -50 110 -64 19 -14 41 -26 48 -26 7
0 13 -3 14 -7 0 -5 1 -43 3 -87 l3 -78 -20 38 c-30 59 -46 74 -84 74 -19 0
-33 -4 -31 -8 2 -5 16 -33 32 -64 28 -52 29 -63 7 -98 -5 -8 -17 -36 -26 -62
-25 -72 -37 -60 -30 30 8 96 -1 122 -62 166 -80 58 -130 61 -76 3 64 -68 71
-126 22 -182 -31 -34 -31 -43 -7 -77 10 -14 10 -20 0 -30 -22 -22 -79 56 -87
119 -7 55 -19 74 -29 47 -11 -29 -88 12 -85 45 4 40 -2 46 -20 22 -16 -21 -24
-23 -64 -19 -48 6 -57 -1 -57 -43 0 -12 -11 -24 -27 -31 -16 -7 -30 -13 -32
-15 -3 -2 9 -17 24 -33 35 -36 28 -55 -28 -82 l-35 -17 13 -56 c7 -31 16 -59
19 -63 12 -11 26 21 26 61 0 41 15 50 24 14 8 -34 -12 -95 -37 -112 -34 -22
-164 -42 -179 -27 -18 18 9 42 47 42 43 0 59 21 51 65 -11 58 -66 81 -124 51
-15 -7 -52 -19 -82 -25 -30 -7 -65 -21 -77 -33 -22 -21 -23 -21 -23 -2 0 36
29 62 107 95 57 24 99 34 158 38 80 6 105 21 50 31 -44 8 -41 26 12 64 26 19
78 66 115 105 61 66 70 71 108 71 45 0 180 65 180 88 0 15 0 15 -43 -3 l-36
-15 0 33 c1 17 -1 43 -3 56 -4 33 19 38 33 7 7 -14 18 -26 25 -26 7 0 20 -8
29 -17 10 -10 39 -18 72 -21 50 -4 55 -3 51 14 -2 11 -17 23 -35 29 -40 13
-73 43 -73 67 0 22 23 24 41 2z m919 -3 c0 -5 -8 -19 -18 -32 -23 -28 -37 -11
-16 19 15 22 34 29 34 13z m-740 -20 c16 -31 -5 -34 -37 -6 l-28 24 27 1 c17
0 31 -7 38 -19z m860 4 c0 -8 -7 -15 -15 -15 -8 0 -15 7 -15 15 0 8 7 15 15
15 8 0 15 -7 15 -15z m626 -17 l17 -32 22 28 c13 16 27 26 33 22 16 -10 26
-114 13 -142 -12 -27 -42 -32 -60 -10 -9 11 -18 12 -41 3 -26 -10 -33 -8 -55
13 -19 18 -22 26 -14 36 9 11 15 11 32 -1 24 -17 65 -19 86 -6 21 14 1 35 -54
56 -46 17 -55 31 -33 53 20 20 37 14 54 -20z m-1987 0 c0 -7 -4 -22 -9 -33 -7
-17 -9 -15 -9 13 -1 17 4 32 9 32 6 0 10 -6 9 -12z m68 6 c-3 -3 -12 -4 -19
-1 -8 3 -5 6 6 6 11 1 17 -2 13 -5z m1003 -8 c0 -8 -7 -17 -16 -20 -19 -7 -47
12 -38 25 9 15 54 10 54 -5z m-145 -21 c27 -26 29 -33 15 -55 -8 -12 -11 -12
-27 2 -10 9 -30 20 -46 23 -34 9 -42 22 -27 40 19 23 58 18 85 -10z m-1595 0
c0 -8 -7 -15 -16 -15 -14 0 -14 3 -4 15 7 8 14 15 16 15 2 0 4 -7 4 -15z
m2070 -9 c0 -29 -25 -54 -33 -32 -8 21 3 56 19 56 8 0 14 -10 14 -24z m-2281
0 c7 -8 41 -18 77 -21 35 -4 64 -11 64 -16 0 -12 -58 -21 -115 -17 -48 3 -50
4 -53 36 -3 34 8 41 27 18z m2355 -1 c3 -9 0 -15 -9 -15 -16 0 -27 14 -18 24
10 10 21 7 27 -9z m-1879 -4 c16 -27 -124 -53 -164 -31 -24 13 -19 25 14 33
37 9 144 7 150 -2z m215 -1 c0 -5 -7 -10 -15 -10 -8 0 -15 5 -15 10 0 6 7 10
15 10 8 0 15 -4 15 -10z m984 -16 c3 -9 5 -34 5 -57 -1 -23 -4 -32 -6 -20 -2
12 -11 27 -19 33 -18 16 -18 60 0 60 8 0 17 -7 20 -16z m1074 -6 c-4 -29 -38
-38 -38 -10 0 22 8 32 27 32 9 0 13 -8 11 -22z m-158 -11 c0 -31 -36 -65 -52
-49 -8 8 -4 19 13 41 29 36 39 38 39 8z m441 3 c21 -12 25 -35 8 -46 -14 -8
-53 31 -45 45 9 14 12 14 37 1z m-1101 -10 c0 -5 -7 -10 -15 -10 -8 0 -15 5
-15 10 0 6 7 10 15 10 8 0 15 -4 15 -10z m550 -15 c0 -20 -20 -29 -33 -16 -6
6 -28 11 -49 11 -34 0 -47 8 -34 21 2 2 29 2 60 1 39 -3 56 -8 56 -17z m-2753
-25 l-5 -40 56 -1 c99 -1 107 -18 10 -18 l-88 -1 0 31 c0 30 15 69 27 69 3 0
3 -18 0 -40z m1140 -27 c-2 -16 -4 -5 -4 22 0 28 2 40 4 28 2 -13 2 -35 0 -50z
m-1348 48 c9 -6 10 -10 2 -16 -16 -9 -44 2 -36 15 8 12 16 12 34 1z m336 -2
c10 -15 -1 -23 -20 -15 -9 3 -13 10 -10 16 8 13 22 13 30 -1z m755 -14 c0 -8
-7 -15 -15 -15 -16 0 -20 12 -8 23 11 12 23 8 23 -8z m347 -7 c-3 -8 -6 -5 -6
6 -1 11 2 17 5 13 3 -3 4 -12 1 -19z m673 3 c0 -26 -10 -51 -21 -51 -5 0 -9
16 -9 35 0 24 5 35 15 35 8 0 15 -9 15 -19z m160 -3 c43 -29 49 -48 17 -48
-28 0 -77 35 -77 56 0 20 22 17 60 -8z m-1100 2 c0 -5 -7 -10 -15 -10 -8 0
-15 5 -15 10 0 6 7 10 15 10 8 0 15 -4 15 -10z m2514 4 c20 -8 20 -20 1 -28
-21 -8 -45 3 -45 20 0 15 18 18 44 8z m-5366 -33 c6 -41 -21 -51 -129 -51 -57
0 -101 4 -104 10 -13 21 16 38 76 44 33 4 70 11 82 16 39 16 72 8 75 -19z
m2916 20 c3 -5 0 -11 -8 -14 -15 -6 -26 1 -26 15 0 11 27 10 34 -1z m1196 -1
c0 -14 -39 -32 -52 -24 -7 5 -5 11 7 21 22 15 45 17 45 3z m-1895 -9 c5 -9
-53 -31 -82 -31 -14 0 -18 22 -6 33 10 11 81 8 88 -2z m-2735 -16 c0 -8 -4
-15 -9 -15 -13 0 -22 16 -14 24 11 11 23 6 23 -9z m1836 -22 c-11 -11 -19 6
-11 24 8 17 8 17 12 0 3 -10 2 -21 -1 -24z m3957 12 c-3 -13 -53 -20 -53 -7 0
15 13 23 35 20 11 -2 19 -7 18 -13z m124 -12 c-9 -9 -20 -13 -24 -9 -4 4 1 14
11 22 25 18 35 8 13 -13z m-3703 11 c18 -7 21 -30 5 -39 -14 -9 -101 24 -93
36 6 10 64 12 88 3z m2031 -6 c43 -19 27 -56 -19 -44 -24 6 -40 31 -30 47 7
12 18 11 49 -3z m-2270 -18 c0 -11 -12 -15 -49 -15 -52 0 -75 20 -34 28 44 9
83 3 83 -13z m1105 7 c25 -7 51 -16 58 -20 43 -28 -34 -37 -95 -12 -35 15 -39
14 -65 -5 l-28 -21 0 29 c0 16 3 32 7 35 10 11 73 7 123 -6z m1698 1 c16 -16
15 -28 -2 -28 -17 0 -38 24 -29 33 9 10 17 9 31 -5z m905 -33 c-4 -24 -2 -35
7 -35 6 0 23 -9 37 -20 14 -11 34 -20 44 -20 11 0 19 -4 19 -10 0 -13 -57 -13
-65 1 -5 7 -13 5 -25 -6 -21 -19 -44 -11 -36 11 4 12 1 11 -17 -1 -19 -12 -29
-13 -55 -3 -42 16 -42 39 0 36 28 -3 35 2 56 40 29 51 43 54 35 7z m-1042 18
c4 -39 8 -61 14 -80 9 -29 1 -29 -67 1 -73 32 -167 32 -179 -2 -9 -23 -24 -29
-34 -12 -11 17 15 80 33 81 9 0 52 2 95 4 44 2 81 6 85 9 8 9 52 7 53 -1z
m419 -8 c0 -8 -6 -15 -14 -15 -8 0 -16 7 -20 15 -4 10 1 15 14 15 11 0 20 -7
20 -15z m335 -5 c10 -11 13 -20 7 -20 -6 0 -14 5 -17 10 -3 6 -15 10 -25 10
-10 0 -22 5 -25 10 -12 19 42 10 60 -10z m643 9 c-2 -6 -16 -18 -31 -27 -20
-13 -29 -14 -38 -5 -9 9 -9 16 1 28 14 17 74 21 68 4z m-3708 -9 c0 -5 -6 -10
-14 -10 -8 0 -18 5 -21 10 -3 6 3 10 14 10 12 0 21 -4 21 -10z m960 0 c0 -5
-4 -10 -10 -10 -5 0 -10 5 -10 10 0 6 5 10 10 10 6 0 10 -4 10 -10z m67 -7
c-9 -9 -19 -14 -23 -11 -10 10 6 28 24 28 15 0 15 -1 -1 -17z m1753 -2 c0 -22
-16 -36 -24 -22 -8 12 3 41 15 41 5 0 9 -9 9 -19z m760 10 c0 -11 -50 -24 -58
-16 -8 8 19 25 41 25 9 0 17 -4 17 -9z m-3235 -13 c11 0 70 2 130 3 l110 4 0
-25 c0 -21 -4 -25 -30 -23 -158 8 -169 5 -180 -48 -8 -34 -25 -49 -25 -22 0
11 -6 27 -13 37 -12 16 -15 16 -51 1 -51 -22 -126 -13 -133 16 -6 22 -16 24
-44 9 -27 -15 -24 -32 11 -65 17 -16 30 -33 30 -38 0 -17 -55 4 -75 28 -20 24
-21 24 -69 10 -62 -19 -100 -19 -116 0 -10 12 -7 17 14 26 38 18 32 26 -16 25
-37 -1 -43 2 -43 19 0 31 74 33 121 4 40 -25 80 -21 121 11 27 21 68 27 78 10
7 -11 74 -14 99 -4 8 3 12 12 9 21 -5 13 -1 15 23 9 16 -4 38 -8 49 -8z m2864
-18 c6 0 11 -7 11 -15 0 -10 -11 -15 -35 -15 -27 0 -35 4 -35 18 0 10 6 24 12
30 10 10 15 10 24 -3 6 -8 16 -15 23 -15z m631 19 c0 -6 -8 -23 -18 -37 -10
-15 -21 -34 -25 -43 -6 -19 -90 -43 -118 -34 -12 4 -19 16 -19 30 0 13 -5 27
-12 31 -15 10 -38 -24 -38 -58 0 -16 -5 -28 -12 -28 -18 1 -61 70 -44 70 7 0
25 10 40 21 23 18 31 20 52 10 13 -6 29 -22 34 -37 l10 -26 62 56 c59 54 88
69 88 45z m-5370 -16 c-1 -26 -34 -96 -56 -115 -24 -21 -106 -40 -131 -31 -50
18 -36 47 37 74 33 12 72 36 91 55 36 37 59 44 59 17z m1304 2 c12 -31 -20
-65 -60 -65 -16 0 -15 2 3 20 12 10 24 28 28 40 8 24 21 26 29 5z m-384 -5
c11 -7 2 -10 -32 -10 -26 0 -50 5 -53 10 -8 13 65 13 85 0z m130 -15 c0 -10
-10 -15 -31 -15 -27 0 -30 2 -19 15 7 8 21 15 31 15 11 0 19 -7 19 -15z
m-1306 -21 c13 -50 -2 -84 -48 -105 -60 -27 -121 -25 -151 6 -26 25 -34 65
-12 65 6 0 31 -7 53 -15 54 -18 98 -8 102 26 8 51 45 67 56 23z m1396 16 c0
-5 -7 -10 -16 -10 -8 0 -12 5 -9 10 3 6 10 10 16 10 5 0 9 -4 9 -10z m3025 0
c4 -6 -17 -10 -55 -10 -38 0 -59 4 -55 10 3 6 28 10 55 10 27 0 52 -4 55 -10z
m-1475 -14 c0 -15 -37 -32 -47 -22 -3 3 -3 12 0 21 8 19 47 20 47 1z m-3442
-9 c6 -7 12 -26 14 -42 3 -27 0 -30 -37 -37 -97 -17 -178 -6 -218 29 -24 22
-6 32 58 34 28 0 68 6 90 14 53 17 80 18 93 2z m2927 -27 c5 -23 12 -29 38
-32 44 -4 40 -22 -5 -26 -67 -6 -95 28 -67 79 13 25 26 17 34 -21z m291 25
c16 -12 17 -14 2 -15 -23 0 -48 11 -48 21 0 14 24 11 46 -6z m162 -22 c2 -7
-4 -16 -12 -19 -19 -7 -49 14 -40 28 8 13 46 6 52 -9z m-1983 -3 c-3 -5 -15
-10 -26 -10 -11 0 -17 5 -14 10 3 6 15 10 26 10 11 0 17 -4 14 -10z m389 4
c31 -12 15 -21 -54 -33 -84 -13 -118 -28 -126 -53 -7 -23 -24 -19 -35 8 -12
33 4 46 78 65 73 19 112 23 137 13z m1361 -13 c0 -20 -81 -49 -96 -34 -16 16
-2 33 26 33 13 0 27 5 30 11 9 14 40 7 40 -10z m1810 10 c7 -12 -31 -25 -45
-16 -6 4 -8 11 -5 16 8 12 42 12 50 0z m1165 -10 c0 -11 -4 -23 -10 -26 -6 -4
-10 5 -10 19 0 14 5 26 10 26 6 0 10 -9 10 -19z m-4225 -1 c-3 -5 -13 -10 -21
-10 -8 0 -14 5 -14 10 0 6 9 10 21 10 11 0 17 -4 14 -10z m3276 -11 c29 -29
19 -33 -32 -13 -62 24 -69 34 -26 34 24 0 44 -7 58 -21z m285 -52 c66 -35 129
-68 141 -71 11 -4 27 -13 33 -21 19 -22 37 -18 44 10 12 49 46 25 46 -33 l1
-27 24 28 c29 32 36 33 60 7 12 -13 31 -20 57 -20 21 0 47 -5 57 -12 15 -9 28
-9 57 0 45 14 54 9 54 -28 0 -40 9 -60 26 -53 8 3 14 -1 14 -10 0 -30 -52 -31
-64 -1 -7 19 -26 18 -26 -1 0 -19 -14 -19 -30 0 -7 8 -33 24 -58 35 -51 23
-56 24 -47 10 10 -16 -17 -12 -36 6 -23 21 -53 11 -45 -14 6 -16 0 -19 -40
-19 -43 0 -48 3 -87 53 -45 57 -62 67 -52 32 6 -20 3 -19 -26 9 -34 33 -62 49
-199 118 -41 20 -84 42 -94 47 -15 8 -23 6 -32 -7 -12 -15 -13 -15 -23 4 -18
32 -14 34 58 29 61 -5 81 -12 187 -71z m-5235 43 c-13 -11 -33 -20 -45 -20
-21 1 -21 1 3 20 13 11 33 20 45 20 21 -1 21 -1 -3 -20z m3397 8 c17 -17 15
-55 -3 -62 -36 -14 -82 25 -69 59 7 18 55 20 72 3z m-2311 -4 c-3 -3 -12 -4
-19 -1 -8 3 -5 6 6 6 11 1 17 -2 13 -5z m689 -4 c20 -8 36 -8 56 1 37 15 54 1
34 -27 -12 -16 -27 -19 -94 -19 -55 0 -84 4 -97 15 -16 14 -16 15 11 27 36 15
55 16 90 3z m4769 -10 c3 -11 4 -29 0 -39 -5 -16 -12 -19 -43 -14 -44 7 -38 3
-47 33 l-8 25 23 -20 c21 -19 22 -19 36 0 8 10 14 22 14 27 0 16 19 7 25 -12z
m-5257 -2 c-3 -7 -43 -23 -90 -34 -47 -12 -91 -24 -97 -28 -29 -18 -2 -24 106
-23 101 2 118 0 121 -14 4 -24 -20 -30 -140 -36 -120 -6 -138 0 -138 48 0 37
31 57 123 80 88 21 120 23 115 7z m4317 -8 c3 -5 1 -10 -4 -10 -6 0 -11 5 -11
10 0 6 2 10 4 10 3 0 8 -4 11 -10z m-5570 -42 c11 -53 7 -115 -10 -148 -8 -16
-19 -30 -24 -30 -12 0 -21 26 -21 60 0 21 -6 31 -22 36 -21 6 -21 7 5 21 15 8
25 18 22 23 -9 15 -125 11 -173 -5 -60 -21 -70 -10 -30 32 l33 35 75 -6 c43
-3 81 -2 90 4 29 19 48 11 55 -22z m1567 9 c16 -26 -14 -38 -91 -35 -59 2 -76
6 -76 18 0 33 147 49 167 17z m1908 -9 c11 -18 20 -41 20 -50 0 -9 12 -23 27
-30 31 -15 41 -36 20 -43 -8 -4 -29 8 -48 27 -19 18 -47 43 -62 55 -36 31 -38
73 -2 73 18 0 31 -10 45 -32z m1255 22 c-3 -5 -17 -10 -31 -10 -13 0 -24 5
-24 10 0 6 14 10 31 10 17 0 28 -4 24 -10z m-3795 -10 c0 -15 -40 -32 -58 -25
-15 6 -15 8 2 21 23 16 56 19 56 4z m2742 -69 c-1 -42 2 -71 8 -71 5 0 10 5
10 10 0 6 9 10 20 10 23 0 26 -10 8 -28 -14 -14 -118 -16 -118 -2 0 5 9 14 20
20 16 9 20 21 20 69 0 59 6 74 24 68 7 -3 10 -32 8 -76z m-1152 43 c0 -8 -4
-14 -10 -14 -5 0 -10 9 -10 21 0 11 5 17 10 14 6 -3 10 -13 10 -21z m65 6 c0
-22 -39 -19 -43 3 -3 15 1 18 20 15 12 -2 23 -10 23 -18z m1236 -13 c-8 -8
-11 -7 -11 4 0 20 13 34 18 19 3 -7 -1 -17 -7 -23z m79 29 c0 -3 -4 -8 -10
-11 -5 -3 -10 -1 -10 4 0 6 5 11 10 11 6 0 10 -2 10 -4z m487 -2 c-3 -3 -12
-4 -19 -1 -8 3 -5 6 6 6 11 1 17 -2 13 -5z m111 -10 c24 -17 29 -34 10 -34
-14 1 -58 34 -58 44 0 11 26 6 48 -10z m-3813 -14 c-3 -5 -20 -10 -36 -10 -18
0 -28 4 -24 10 3 6 20 10 36 10 18 0 28 -4 24 -10z m1195 -25 c0 -34 -12 -46
-25 -24 -9 14 3 59 15 59 6 0 10 -16 10 -35z m575 26 c5 -8 -52 -31 -77 -31
-19 0 -5 19 20 28 36 14 50 14 57 3z m2165 -1 c0 -5 -9 -10 -21 -10 -11 0 -17
5 -14 10 3 6 13 10 21 10 8 0 14 -4 14 -10z m-5516 -15 c3 -8 17 -20 31 -27
27 -12 34 -38 11 -38 -8 0 -27 5 -41 10 -21 8 -37 6 -73 -10 -52 -23 -76 -21
-116 11 -33 26 -22 38 34 40 19 0 53 6 75 14 54 18 72 18 79 0z m1163 -2 c5
-14 -29 -26 -51 -17 -13 5 -14 9 -5 21 14 16 51 14 56 -4z m2006 11 c9 -10 -4
-34 -19 -34 -16 0 -16 2 -8 24 6 17 16 20 27 10z m67 -2 c0 -13 -12 -22 -22
-16 -10 6 -1 24 13 24 5 0 9 -4 9 -8z m510 -1 c0 -14 -27 -21 -82 -21 -57 0
-57 9 -1 20 55 11 83 11 83 1z m1168 -3 c-5 -13 -68 -30 -68 -18 0 8 39 28 58
29 8 1 12 -5 10 -11z m-3423 -8 c5 -8 -6 -12 -67 -25 -10 -2 -18 1 -18 5 0 23
72 40 85 20z m1532 -7 c5 -14 -20 -28 -66 -38 -44 -9 -39 13 10 37 36 19 50
19 56 1z m1273 -22 c50 -26 55 -32 58 -65 4 -42 -4 -45 -35 -13 -12 13 -49 38
-82 56 -34 18 -61 36 -61 40 0 29 39 23 120 -18z m1374 30 c3 -5 -3 -11 -13
-14 -26 -6 -72 3 -65 14 7 12 71 12 78 0z m1851 -55 c30 -17 65 -47 78 -66 14
-22 37 -40 61 -48 50 -16 58 -7 21 23 -26 20 -28 24 -13 30 32 13 53 0 67 -41
24 -68 16 -74 -91 -74 -115 0 -125 5 -107 53 16 46 2 80 -41 102 -47 25 -73
15 -30 -11 l36 -21 -4 -79 c-2 -43 -6 -81 -8 -83 -11 -12 -35 26 -32 50 5 30
11 28 -121 45 -40 5 -55 11 -58 25 -6 23 -1 23 -57 -2 -47 -20 -102 -23 -100
-4 1 6 11 14 22 20 21 9 21 11 -14 46 -41 42 -38 54 13 76 37 15 37 15 98 -31
7 -6 21 1 38 18 32 32 38 32 75 1 38 -32 62 -32 62 -2 0 33 10 40 32 20 10 -9
43 -30 73 -47z m-4947 32 c16 -14 15 -38 -2 -38 -7 0 -16 9 -19 20 -5 20 -7
20 -42 5 -42 -17 -85 -20 -85 -5 0 6 8 10 18 10 10 0 27 7 38 15 20 15 68 12
92 -7z m2537 13 c10 -18 -17 -23 -33 -7 -15 15 -15 16 5 16 12 0 24 -4 28 -9z
m1935 -12 l25 -20 -30 3 c-19 2 -31 9 -33 21 -4 22 7 21 38 -4z m-4383 -16
c-21 -21 -29 -25 -39 -15 -9 9 -8 15 8 27 10 8 28 15 39 15 18 0 17 -3 -8 -27z
m2327 16 c-8 -14 -74 -42 -81 -35 -7 6 58 46 75 46 7 0 10 -5 6 -11z m206 -4
c10 -12 10 -15 -3 -15 -8 0 -20 7 -27 15 -10 12 -10 15 3 15 8 0 20 -7 27 -15z
m-3465 -4 c-6 -5 -21 -11 -34 -13 -14 -1 -26 -9 -29 -15 -5 -16 173 -19 183
-3 14 22 25 8 25 -32 l0 -41 -111 6 c-60 4 -114 9 -120 12 -5 4 -9 26 -9 51
l0 44 52 0 c32 0 48 -4 43 -9z m-1370 -33 c-22 -9 -46 -18 -53 -18 -7 0 -27
-7 -44 -16 -28 -15 -30 -18 -24 -55 9 -54 1 -63 -34 -42 -36 21 -45 14 -29
-20 15 -33 6 -44 -61 -81 -58 -32 -85 -31 -52 2 13 13 22 34 22 51 0 57 21 81
35 39 7 -22 7 -22 12 -3 3 11 21 38 41 59 26 27 31 37 17 32 -11 -4 -48 -10
-82 -13 -98 -9 -76 12 30 30 96 16 134 25 202 50 54 20 70 8 20 -15z m993 4
c5 -31 -34 -43 -126 -40 -54 2 -77 7 -80 17 -4 11 7 13 58 8 70 -6 110 4 110
28 0 25 34 13 38 -13z m227 19 c9 -16 -12 -22 -90 -30 -79 -7 -97 0 -42 18 64
20 123 25 132 12z m1302 3 c-3 -3 -12 -4 -19 -1 -8 3 -5 6 6 6 11 1 17 -2 13
-5z m1888 -4 c3 -5 -1 -10 -9 -10 -9 0 -16 5 -16 10 0 6 4 10 9 10 6 0 13 -4
16 -10z m-5080 -35 c0 -24 -7 -33 -35 -47 -43 -22 -93 -23 -110 -3 -7 8 -23
15 -36 15 -30 0 -31 16 -3 30 23 13 146 39 169 37 10 -2 15 -13 15 -32z m784
4 c-40 -21 -72 -24 -67 -7 5 14 78 38 92 30 5 -3 -6 -13 -25 -23z m626 21 c4
-6 1 -18 -6 -26 -10 -12 -28 -15 -76 -12 -96 6 -101 22 -12 37 76 12 87 12 94
1z m2255 -1 c0 -5 -17 -17 -37 -26 -54 -22 -93 -33 -93 -24 0 10 60 43 94 52
17 4 32 7 34 8 1 1 2 -4 2 -10z m145 1 c3 -5 15 -10 26 -10 11 0 17 -4 14 -10
-3 -5 -21 -10 -40 -10 -35 0 -51 12 -40 30 3 6 12 10 20 10 8 0 17 -4 20 -10z
m1195 -16 c0 -8 -4 -12 -10 -9 -5 3 -10 10 -10 16 0 5 5 9 10 9 6 0 10 -7 10
-16z m1044 -35 c17 -28 17 -29 -3 -29 -12 0 -21 7 -21 15 0 9 -8 18 -17 22
-32 11 -45 25 -32 34 18 11 54 -9 73 -42z m-3476 -1 c-3 -47 -24 -62 -34 -24
-8 31 -19 33 -34 5 -9 -16 -14 -18 -26 -9 -17 15 -11 26 30 51 52 32 68 26 64
-23z m67 -3 c0 -23 -4 -30 -20 -30 -21 0 -31 25 -21 51 11 28 41 12 41 -21z
m1302 29 c-3 -3 -12 -4 -19 -1 -8 3 -5 6 6 6 11 1 17 -2 13 -5z m3203 -29 c0
-12 -7 -25 -15 -29 -21 -8 -19 -28 5 -59 11 -14 20 -28 20 -31 0 -11 -28 -6
-39 8 -6 7 -22 11 -35 9 -21 -4 -26 0 -35 33 -17 62 -15 74 17 74 15 0 36 7
46 15 23 18 36 11 36 -20z m-6030 5 c0 -5 -6 -10 -14 -10 -8 0 -18 5 -21 10
-3 6 3 10 14 10 12 0 21 -4 21 -10z m3390 0 c0 -5 -2 -10 -4 -10 -3 0 -8 5
-11 10 -3 6 -1 10 4 10 6 0 11 -4 11 -10z m1886 -17 c-7 -7 -26 7 -26 19 0 6
6 6 15 -2 9 -7 13 -15 11 -17z m-3956 -2 c13 -26 13 -128 -1 -136 -16 -10 -20
-2 -26 59 -3 31 -10 59 -15 62 -10 6 9 34 23 34 5 0 13 -9 19 -19z m320 4 c0
-8 -4 -15 -10 -15 -5 0 -10 7 -10 15 0 8 5 15 10 15 6 0 10 -7 10 -15z m-1860
-3 c0 -5 -9 -17 -20 -27 -14 -13 -24 -15 -31 -8 -8 8 -4 15 12 27 26 18 39 20
39 8z m1015 -22 c0 -25 0 -25 -95 -25 -78 0 -95 3 -95 15 0 11 18 17 70 23 39
4 75 9 80 11 23 10 40 0 40 -24z m775 26 c0 -3 -4 -8 -10 -11 -5 -3 -10 -1
-10 4 0 6 5 11 10 11 6 0 10 -2 10 -4z m510 -6 c0 -5 -4 -10 -10 -10 -5 0 -10
5 -10 10 0 6 5 10 10 10 6 0 10 -4 10 -10z m148 -6 c-32 -17 -38 -54 -10 -54
10 0 23 5 30 12 9 9 12 8 12 -4 0 -9 -7 -19 -16 -22 -26 -10 -164 -7 -164 4 0
6 14 10 30 10 22 0 41 10 66 35 19 20 44 35 57 35 20 -1 20 -2 -5 -16z m1253
6 c22 -12 26 -40 6 -40 -18 0 -49 34 -40 43 8 9 11 9 34 -3z m-2333 -12 c17
-17 15 -63 -3 -78 -12 -10 -16 -8 -25 15 -22 57 -5 96 28 63z m862 2 c0 -10
-46 -32 -92 -44 -24 -5 -28 -3 -28 15 0 15 4 19 16 15 8 -3 22 1 30 9 17 17
74 21 74 5z m-3390 -56 l0 -44 -79 0 c-44 0 -82 4 -86 9 -11 19 136 98 158 84
4 -2 7 -24 7 -49z m910 0 c14 -40 7 -53 -18 -38 -11 7 -18 27 -20 54 -3 38 -1
42 12 31 8 -7 20 -28 26 -47z m774 47 c14 -22 -129 -40 -165 -21 -23 13 -23
13 -4 21 28 11 163 11 169 0z m256 -24 c27 -39 50 -57 73 -57 12 0 29 -4 37
-10 12 -8 12 -10 -4 -16 -22 -8 -215 23 -233 38 -25 21 -13 29 32 22 51 -7 55
-1 23 34 l-23 25 40 -7 c24 -4 46 -16 55 -29z m637 -34 c-2 -16 -4 -5 -4 22 0
28 2 40 4 28 2 -13 2 -35 0 -50z m1653 52 c10 -12 9 -16 -3 -21 -19 -7 -60 14
-52 27 9 14 41 11 55 -6z m319 1 c9 -11 7 -15 -11 -20 -46 -12 -87 1 -74 23
10 16 71 14 85 -3z m471 9 c0 -6 -57 -35 -70 -35 -19 0 -10 20 13 30 24 10 57
13 57 5z m-5706 -48 c15 -60 0 -87 -67 -120 -48 -23 -58 -31 -55 -50 3 -21 7
-22 71 -19 l67 3 0 -40 c0 -40 -1 -41 -35 -41 -47 0 -88 22 -119 62 -44 60
-60 162 -28 190 34 31 98 59 127 56 26 -3 31 -9 39 -41z m3916 13 c0 -22 -16
-35 -25 -20 -9 14 4 52 16 45 5 -4 9 -15 9 -25z m-1440 11 c0 -6 -10 -17 -22
-25 -27 -19 -48 -5 -28 19 14 16 50 21 50 6z m2650 -1 c0 -5 -4 -10 -10 -10
-5 0 -10 5 -10 10 0 6 5 10 10 10 6 0 10 -4 10 -10z m381 -6 c10 -13 10 -17
-2 -25 -36 -23 -77 3 -44 28 24 17 30 16 46 -3z m2019 6 c0 -5 -4 -10 -10 -10
-5 0 -10 5 -10 10 0 6 5 10 10 10 6 0 10 -4 10 -10z m-7720 -15 c0 -8 -7 -15
-16 -15 -14 0 -14 3 -4 15 7 8 14 15 16 15 2 0 4 -7 4 -15z m1873 0 c1 -5 -6
-11 -15 -13 -11 -2 -18 3 -18 13 0 17 30 18 33 0z m1640 9 c9 -9 -4 -35 -14
-28 -5 3 -9 12 -9 20 0 14 12 19 23 8z m532 -24 c0 -13 -6 -25 -12 -27 -9 -3
-13 6 -13 27 0 21 4 30 13 28 6 -3 12 -15 12 -28z m773 24 c36 -10 27 -34 -12
-34 -38 0 -57 17 -35 31 17 10 18 10 47 3z m-1473 -24 c-3 -5 -17 -10 -31 -10
-13 0 -24 5 -24 10 0 6 14 10 31 10 17 0 28 -4 24 -10z m5210 -16 c30 -14 30
-14 -20 -9 -27 3 -54 10 -59 15 -16 16 44 11 79 -6z m-7545 -4 c0 -5 -16 -10
-36 -10 -21 0 -33 4 -29 10 3 6 19 10 36 10 16 0 29 -4 29 -10z m1574 -6 c11
-28 7 -74 -7 -74 -7 0 -26 13 -41 29 l-28 29 28 16 c37 19 41 19 48 0z m612
-39 c-3 -9 -10 -13 -16 -10 -12 7 -13 48 -3 59 11 11 27 -30 19 -49z m62 27
c2 -13 -3 -25 -13 -28 -22 -9 -29 1 -21 31 8 31 30 28 34 -3z m442 12 c13 -5
13 -6 0 -14 -20 -13 -67 -13 -75 0 -17 27 15 33 75 14z m1300 6 c0 -11 -48
-25 -56 -17 -4 3 -3 10 1 16 8 14 55 14 55 1z m205 0 c10 -16 -5 -50 -21 -50
-15 0 -18 18 -8 44 7 18 20 21 29 6z m-4065 -10 c0 -5 -4 -10 -10 -10 -5 0
-10 5 -10 10 0 6 5 10 10 10 6 0 10 -4 10 -10z m280 2 c0 -5 -7 -17 -15 -28
-14 -18 -14 -18 -15 9 0 17 5 27 15 27 8 0 15 -4 15 -8z m744 -13 c-26 -30
-94 -79 -109 -79 -21 0 -25 28 -7 50 17 21 82 49 116 50 19 0 19 0 0 -21z
m871 1 c-26 -13 -43 -16 -50 -9 -15 14 13 29 55 28 l35 -1 -40 -18z m795 0 c0
-4 -13 -13 -30 -18 -31 -11 -46 -2 -37 22 6 14 67 10 67 -4z m-3176 1 c11 -17
-5 -40 -35 -50 -52 -18 -75 4 -42 41 17 19 68 25 77 9z m420 -12 c-3 -5 -10
-7 -15 -3 -5 3 -7 10 -3 15 3 5 10 7 15 3 5 -3 7 -10 3 -15z m252 -24 c-9 -45
6 -51 70 -29 29 10 57 15 61 11 11 -12 -30 -60 -68 -79 -19 -10 -51 -18 -72
-18 l-37 0 6 43 c11 74 24 118 35 111 6 -4 8 -20 5 -39z m964 37 c0 -14 -43
-50 -64 -54 -10 -1 -23 5 -30 15 -9 15 -7 21 8 33 21 15 86 20 86 6z m2804 -1
c7 -11 -22 -23 -35 -15 -5 3 -7 10 -4 15 8 12 32 12 39 0z m234 -3 c-6 -17
-36 -34 -45 -24 -4 4 1 14 11 22 24 17 39 18 34 2z m3410 -7 c3 -8 -1 -12 -9
-9 -7 2 -15 10 -17 17 -3 8 1 12 9 9 7 -2 15 -10 17 -17z m110 7 c18 -18 14
-28 -12 -28 -41 0 -58 10 -45 26 14 17 41 18 57 2z m-4255 -13 c1 -5 -18 -11
-43 -12 l-45 -3 30 14 c33 16 55 16 58 1z m134 0 c3 -9 3 -19 0 -22 -8 -8 -67
17 -67 28 0 16 60 10 67 -6z m-3499 -55 c3 -46 0 -56 -24 -81 -29 -30 -106
-65 -122 -55 -14 9 -24 73 -17 107 8 36 29 33 33 -5 3 -21 7 -26 23 -21 10 3
28 8 39 11 18 5 40 56 40 92 0 8 6 12 13 10 7 -3 13 -26 15 -58z m1226 26 c40
-18 77 -39 81 -46 9 -14 -52 -69 -77 -70 -21 0 -34 22 -43 78 -6 37 -11 44
-36 49 -16 3 -32 10 -35 14 -11 19 41 7 110 -25z m1491 9 l30 -24 -32 -1 c-44
0 -63 9 -63 31 0 27 29 24 65 -6z m891 9 c22 8 28 -16 9 -31 -42 -30 -97 -8
-81 32 4 12 11 13 32 4 15 -5 33 -8 40 -5z m-4432 -21 c35 -35 30 -63 -14 -85
-29 -15 -37 -16 -55 -4 -28 19 -26 49 4 56 14 3 27 12 29 19 4 13 -22 11 -80
-5 -29 -8 -30 14 -1 30 44 24 86 20 117 -11z m2746 17 c0 -5 -4 -10 -9 -10 -6
0 -13 5 -16 10 -3 6 1 10 9 10 9 0 16 -4 16 -10z m1115 0 c-3 -5 -17 -10 -31
-10 -14 0 -22 4 -19 10 3 6 17 10 31 10 14 0 22 -4 19 -10z m4973 -2 c-3 -7
-22 -14 -44 -15 l-39 -2 35 14 c45 17 53 18 48 3z m-6573 -8 c3 -5 21 -9 38
-7 26 2 32 -2 32 -18 0 -13 -8 -21 -23 -23 -28 -4 -72 23 -72 43 0 17 16 20
25 5z m871 -1 c10 -17 -13 -36 -27 -22 -12 12 -4 33 11 33 5 0 12 -5 16 -11z
m838 -4 c4 -11 13 -14 31 -9 19 5 25 2 25 -11 0 -13 -8 -16 -37 -13 -31 2 -39
7 -41 26 -4 25 13 30 22 7z m1237 -39 c21 -46 24 -66 9 -66 -16 0 -50 63 -50
93 0 37 17 26 41 -27z m-3914 27 c5 -11 -4 -26 -29 -47 -19 -17 -38 -42 -41
-56 -3 -14 -13 -34 -21 -45 -14 -19 -14 -19 -35 5 -11 14 -20 29 -21 33 0 18
44 70 83 98 46 34 55 35 64 12z m183 7 c0 -5 -5 -10 -11 -10 -6 0 -29 -16 -50
-35 -41 -37 -54 -42 -64 -25 -12 19 5 46 38 63 36 18 87 22 87 7z m80 -5 c9
-11 7 -19 -14 -40 -30 -30 -56 -33 -56 -5 0 20 32 60 49 60 5 0 14 -7 21 -15z
m375 -9 c21 -15 14 -46 -11 -46 -21 0 -54 28 -54 47 0 17 41 17 65 -1z m1008
7 c11 -10 -13 -33 -34 -33 -24 0 -25 16 -1 29 20 12 27 13 35 4z m135 -5 c-6
-18 -28 -21 -28 -4 0 9 7 16 16 16 9 0 14 -5 12 -12z m1752 -23 c0 -19 -4 -35
-10 -35 -5 0 -10 16 -10 35 0 19 5 35 10 35 6 0 10 -16 10 -35z m-4090 6 c0
-11 -4 -23 -10 -26 -6 -4 -10 5 -10 19 0 14 5 26 10 26 6 0 10 -9 10 -19z
m1038 -12 c2 -16 -5 -32 -18 -44 -20 -18 -21 -18 -42 2 -20 21 -20 23 -4 48
23 34 60 31 64 -6z m1246 22 c3 -5 -1 -14 -8 -20 -16 -13 -32 2 -21 19 8 12
22 13 29 1z m426 -1 c0 -5 -5 -10 -11 -10 -5 0 -7 5 -4 10 3 6 8 10 11 10 2 0
4 -4 4 -10z m640 0 c0 -5 -7 -10 -16 -10 -8 0 -12 5 -9 10 3 6 10 10 16 10 5
0 9 -4 9 -10z m620 0 c0 -5 -19 -10 -42 -10 -24 0 -68 -3 -98 -6 -38 -5 -52
-3 -45 4 14 15 41 20 118 21 39 1 67 -3 67 -9z m315 0 c8 -13 -39 -60 -60 -60
-19 0 -20 19 0 26 8 3 17 14 20 25 7 20 30 26 40 9z m98 -5 c1 -5 -10 -11 -25
-13 -16 -2 -28 1 -28 7 0 20 49 26 53 6z m-4537 -48 c13 -24 13 -34 4 -58 -16
-38 -69 -84 -116 -99 -33 -11 -39 -11 -51 6 -12 16 -20 134 -9 134 3 0 12 -22
21 -50 9 -27 21 -50 26 -50 6 0 5 8 -1 20 -12 22 -5 60 11 60 5 0 12 -7 15
-15 4 -8 12 -15 20 -15 14 0 17 11 29 83 5 33 8 37 21 26 9 -7 22 -26 30 -42z
m1933 37 c11 -10 -14 -19 -49 -19 -41 0 -56 8 -46 23 5 9 84 5 95 -4z m-3171
-27 c2 -11 -9 -19 -40 -27 -68 -19 -68 -25 2 -30 64 -5 65 -5 65 -35 0 -29 -2
-30 -50 -35 -56 -6 -75 -15 -75 -35 0 -12 6 -12 41 0 40 14 72 9 70 -11 0 -5
7 -9 17 -9 45 0 57 -43 20 -69 -26 -18 -77 -20 -131 -5 -48 13 -43 32 9 40 37
5 38 6 12 12 -16 4 -39 9 -53 12 -15 3 -34 20 -45 38 l-20 32 0 -47 0 -46 -62
-7 c-78 -8 -98 -14 -98 -27 0 -6 15 -7 40 -3 34 6 40 4 40 -10 0 -15 8 -16 60
-10 l60 7 -6 -34 c-13 -65 -34 -72 -107 -34 -26 13 -67 31 -91 40 -34 13 -49
26 -67 61 -27 51 -46 57 -55 19 -5 -21 1 -33 31 -64 44 -45 40 -57 -27 -91
-21 -11 -38 -21 -38 -24 0 -4 99 24 113 32 13 8 47 -8 47 -21 0 -17 -86 -55
-144 -62 -41 -6 -45 -5 -48 17 -3 21 -10 25 -53 29 -37 4 -61 14 -93 39 -37
31 -42 39 -42 76 0 24 6 48 13 54 21 16 149 32 185 22 36 -11 42 -7 42 29 0
57 95 100 220 100 l80 0 0 40 c0 37 2 40 38 49 83 22 134 18 140 -12z m3402
13 c0 -4 -9 -10 -21 -13 -11 -3 -23 -15 -26 -26 -7 -27 -29 -27 -36 0 -8 30 1
47 26 51 27 4 57 -2 57 -12z m1449 11 c17 -11 6 -31 -19 -31 -29 0 -50 11 -50
26 0 16 47 19 69 5z m-4441 -13 c-3 -7 -13 -15 -24 -17 -16 -3 -17 -1 -5 13
16 19 34 21 29 4z m1857 0 c33 -15 32 -38 -4 -72 -25 -24 -32 -26 -50 -16 -24
12 -22 34 5 78 17 26 16 25 49 10z m968 -3 c-4 -15 -36 -12 -41 3 -3 9 3 13
19 10 13 -1 23 -7 22 -13z m747 0 c0 -8 -7 -15 -15 -15 -8 0 -15 7 -15 15 0 8
7 15 15 15 8 0 15 -7 15 -15z m250 1 c0 -18 -73 -49 -79 -33 -5 14 36 47 60
47 10 0 19 -6 19 -14z m330 -1 c0 -8 -8 -15 -18 -15 -10 0 -22 -4 -27 -9 -16
-16 -95 -26 -95 -12 0 12 33 28 85 41 46 12 55 11 55 -5z m-1090 -10 c0 -8 -9
-15 -20 -15 -11 0 -20 7 -20 15 0 8 9 15 20 15 11 0 20 -7 20 -15z m-2640 -5
c0 -5 -9 -10 -20 -10 -11 0 -20 5 -20 10 0 6 9 10 20 10 11 0 20 -4 20 -10z
m1828 -33 c3 -32 -2 -45 -32 -78 -20 -21 -36 -45 -36 -53 0 -8 14 -26 32 -40
41 -31 36 -33 -117 -39 -66 -3 -129 -8 -140 -12 -16 -5 -14 -2 7 19 16 14 36
29 45 35 14 7 15 13 6 34 -10 22 -8 28 18 53 27 26 28 29 13 46 -15 16 -15 19
0 43 19 29 42 32 68 8 23 -21 23 -36 -4 -82 -14 -25 -19 -44 -13 -57 6 -16 10
-13 27 23 10 24 27 47 38 53 11 6 20 17 20 25 0 7 5 26 10 40 7 20 16 26 33
23 18 -2 23 -10 25 -41z m1727 22 c4 -6 4 -27 0 -46 -8 -44 -25 -27 -25 25 0
31 12 42 25 21z m-1472 -36 c-15 -5 -53 15 -53 28 0 5 15 2 33 -7 17 -10 27
-19 20 -21z m987 28 c0 -9 -62 -22 -70 -14 -8 7 24 23 48 23 12 0 22 -4 22 -9z
m428 -39 c-4 -35 -25 -39 -39 -8 -9 20 -9 29 1 41 18 21 42 0 38 -33z m392 38
c0 -5 -13 -10 -30 -10 -16 0 -30 5 -30 10 0 6 14 10 30 10 17 0 30 -4 30 -10z
m-2980 -10 c0 -20 -33 -61 -61 -76 -36 -18 -39 -18 -39 5 0 10 17 33 38 50 38
31 62 39 62 21z m354 4 c22 -8 21 -63 0 -71 -39 -15 -71 40 -38 64 21 15 18
15 38 7z m3666 -1 c-14 -3 -32 -11 -40 -18 -24 -20 -63 -30 -58 -14 7 21 49
39 88 37 27 0 29 -2 10 -5z m-3785 -13 c3 -5 -1 -26 -10 -46 -13 -31 -17 -35
-30 -24 -10 8 -13 21 -9 34 12 40 36 57 49 36z m1825 0 c0 -5 -4 -10 -9 -10
-6 0 -13 5 -16 10 -3 6 1 10 9 10 9 0 16 -4 16 -10z m-996 -46 c-1 -43 -39
-134 -57 -134 -5 0 -30 11 -54 25 -45 27 -55 53 -28 75 13 10 19 10 33 -4 27
-24 34 -20 27 18 -6 28 -3 36 17 50 12 9 32 15 43 14 16 -2 20 -10 19 -44z
m312 35 c10 -17 -13 -36 -27 -22 -12 12 -4 33 11 33 5 0 12 -5 16 -11z m64 -4
c0 -8 -4 -15 -10 -15 -5 0 -10 7 -10 15 0 8 5 15 10 15 6 0 10 -7 10 -15z
m-2330 -20 c5 -14 20 -30 34 -36 13 -6 28 -21 34 -33 8 -19 10 -18 17 14 11
51 16 56 31 29 l13 -24 1 23 c0 12 4 22 10 22 11 0 23 -59 18 -87 -4 -25 -83
-63 -130 -63 -32 0 -40 4 -48 26 -11 29 -14 137 -3 147 10 11 13 9 23 -18z
m1504 9 c17 -17 19 -27 10 -61 -8 -31 -29 -35 -58 -12 -31 25 -32 29 -5 63 24
30 32 32 53 10z m2170 -5 c-3 -5 -10 -7 -15 -3 -5 3 -7 10 -3 15 3 5 10 7 15
3 5 -3 7 -10 3 -15z m-514 -31 c21 -46 26 -88 10 -88 -15 0 -60 72 -60 96 0
22 8 34 22 34 5 0 18 -19 28 -42z m1566 -4 c27 -25 57 -50 67 -55 9 -5 17 -16
17 -24 0 -21 20 -23 80 -9 74 17 110 31 110 44 0 5 -18 19 -40 30 -22 11 -40
24 -40 29 0 29 76 16 134 -24 20 -14 41 -25 46 -25 6 0 58 14 117 30 108 30
159 38 148 21 -3 -5 -22 -15 -43 -21 -56 -18 -64 -32 -17 -28 37 3 40 1 43
-24 4 -36 -17 -37 -78 -4 -41 22 -47 23 -73 9 -20 -10 -27 -20 -25 -36 2 -18
9 -21 32 -19 38 4 76 -5 76 -19 0 -7 -11 -8 -30 -4 -19 4 -44 0 -73 -13 -52
-23 -63 -37 -46 -58 6 -8 9 -17 5 -21 -6 -6 -17 -2 -93 34 -33 16 -53 11 -53
-13 0 -19 -33 -18 -71 2 -30 15 -32 15 -76 -20 -58 -45 -71 -46 -44 -2 29 46
26 71 -10 103 -17 16 -35 38 -40 50 -4 12 -28 36 -51 52 -89 62 -87 60 -52 61
24 0 43 -11 80 -46z m-4996 26 c0 -5 -13 -10 -30 -10 -16 0 -30 5 -30 10 0 6
14 10 30 10 17 0 30 -4 30 -10z m960 -41 c0 -12 -5 -16 -15 -13 -8 4 -15 17
-15 31 0 22 2 24 15 13 8 -7 15 -21 15 -31z m68 -2 c2 -10 -3 -17 -12 -17 -10
0 -16 9 -16 21 0 24 23 21 28 -4z m576 7 c9 -8 16 -26 16 -40 0 -32 -28 -43
-46 -19 -17 24 -18 62 -1 68 6 3 13 6 14 6 1 1 9 -6 17 -15z m2036 -5 c0 -5 6
-9 14 -9 24 0 30 -22 11 -36 -10 -7 -38 -16 -63 -20 -40 -6 -48 -4 -64 16 -19
24 -24 60 -8 60 6 0 19 -15 30 -32 17 -29 20 -30 20 -11 0 27 26 54 45 47 8
-4 15 -10 15 -15z m-2411 -51 c12 -34 31 -72 43 -85 19 -20 20 -25 8 -34 -24
-15 -54 -6 -66 21 -16 35 -28 160 -16 160 6 0 20 -28 31 -62z m1907 37 c3 -14
3 -33 -1 -42 -6 -17 -7 -17 -21 1 -19 26 -18 66 1 66 8 0 17 -11 21 -25z m367
-10 c20 -43 22 -65 4 -65 -23 0 -37 23 -37 62 0 47 11 48 33 3z m-2047 8 c28
-37 7 -91 -30 -77 -18 7 -21 46 -6 75 13 24 19 24 36 2z m968 8 c3 -4 -27 -11
-68 -13 -40 -3 -78 -8 -85 -12 -24 -15 10 -34 74 -41 70 -7 90 -25 28 -24 -46
0 -131 14 -139 21 -8 8 23 65 38 71 22 9 147 7 152 -2z m1411 -1 c3 -5 5 -10
3 -10 -2 0 -18 -4 -35 -9 -39 -11 -56 4 -21 18 31 13 46 13 53 1z m-2920 -20
c0 -22 -29 -18 -33 3 -3 14 1 18 15 15 10 -2 18 -10 18 -18z m1794 -32 c13
-21 19 -39 14 -39 -4 -1 -24 -3 -43 -4 -19 -1 -63 -10 -98 -20 -53 -15 -67
-16 -88 -5 -33 18 -30 30 9 30 18 0 42 6 53 14 18 14 18 15 2 21 -20 8 -24 30
-8 40 6 3 18 -7 28 -24 20 -35 32 -42 61 -34 15 4 21 13 21 32 0 30 10 46 20
34 4 -5 17 -25 29 -45z m547 9 c7 -21 8 -20 20 8 11 26 13 28 20 12 5 -13 -1
-27 -20 -45 -26 -26 -27 -27 -42 -8 -7 11 -14 33 -14 49 0 25 2 27 15 17 8 -6
17 -22 21 -33z m-2401 3 c0 -13 -6 -25 -12 -27 -16 -6 -27 21 -19 43 9 23 31
11 31 -16z m480 10 c8 -24 -3 -80 -15 -80 -14 0 -22 38 -15 70 8 35 21 39 30
10z m-1214 -6 c13 -12 22 -13 37 -5 26 14 32 5 32 -43 0 -47 -20 -76 -67 -100
-39 -19 -54 -20 -75 -3 -33 26 -31 54 6 92 20 20 36 45 36 55 0 24 8 25 31 4z
m600 -11 c5 -14 9 -33 7 -41 -4 -21 -28 -27 -28 -8 0 23 -17 20 -25 -4 -7 -23
-23 -26 -31 -6 -6 16 8 46 32 70 22 23 33 20 45 -11z m2319 6 c14 -26 5 -55
-13 -41 -8 6 -39 6 -89 0 -83 -11 -132 -5 -125 15 2 8 33 13 89 15 61 2 90 7
98 17 17 20 27 19 40 -6z m-2247 -3 c3 -8 0 -22 -7 -31 -12 -16 -13 -16 -19
-1 -7 18 1 46 13 46 4 0 10 -6 13 -14z m2401 -11 c8 -23 -12 -28 -23 -6 -6 11
-11 22 -11 25 0 11 29 -6 34 -19z m170 -16 c-3 -5 -10 -7 -15 -3 -5 3 -7 10
-3 15 3 5 10 7 15 3 5 -3 7 -10 3 -15z m-3420 -29 c9 -22 16 -42 16 -44 0 -9
-62 -79 -86 -98 -26 -21 -27 -21 -40 -3 -9 11 -14 45 -14 84 l0 66 23 -29 c31
-39 55 -30 63 24 4 22 10 40 14 40 4 0 15 -18 24 -40z m1226 15 c0 -8 -7 -15
-15 -15 -8 0 -15 7 -15 15 0 8 7 15 15 15 8 0 15 -7 15 -15z m535 -35 c-13
-20 -25 -9 -25 22 0 32 0 32 16 10 8 -12 12 -27 9 -32z m-587 14 c28 -8 10
-32 -30 -38 -46 -7 -76 10 -65 38 6 14 49 14 95 0z m-494 -17 c15 -24 -3 -35
-20 -13 -8 11 -14 24 -14 29 0 13 22 3 34 -16z m376 -18 c0 -25 -4 -29 -29
-29 -36 0 -49 16 -20 23 11 3 23 15 26 26 7 29 23 16 23 -20z m4604 20 c-3 -5
-10 -7 -15 -3 -5 3 -7 10 -3 15 3 5 10 7 15 3 5 -3 7 -10 3 -15z m-5168 -26
c3 -16 7 -34 10 -40 5 -18 -6 -43 -19 -43 -6 0 -19 -8 -29 -17 -23 -20 -33
-10 -42 40 -6 30 -4 37 9 37 8 0 15 -6 15 -14 0 -8 5 -18 11 -22 8 -5 10 2 6
22 -10 53 27 89 39 37z m997 -11 c30 -31 26 -48 -7 -30 -24 13 -36 27 -36 46
0 19 14 14 43 -16z m1790 21 c-7 -2 -21 -2 -30 0 -10 3 -4 5 12 5 17 0 24 -2
18 -5z m2452 -3 c4 -6 -5 -10 -19 -10 -14 0 -26 5 -26 10 0 6 9 10 19 10 11 0
23 -4 26 -10z m-5927 -32 c6 -14 15 -39 18 -56 6 -27 2 -34 -36 -61 -24 -17
-49 -31 -57 -31 -13 0 -53 78 -53 105 0 19 15 26 35 19 11 -5 15 -15 12 -31
-3 -18 -1 -21 6 -14 6 6 20 11 30 11 16 0 19 6 15 45 -3 49 9 55 30 13z m815
13 c4 -4 -11 -16 -33 -26 -47 -21 -55 -17 -38 19 10 23 16 26 37 21 14 -4 30
-10 34 -14z m1387 -6 c0 -17 -27 -45 -44 -45 -15 0 -36 20 -36 36 0 14 49 33
68 26 6 -2 12 -10 12 -17z m-105 5 c10 -16 -13 -38 -45 -45 -38 -8 -55 2 -38
22 23 28 72 41 83 23z m185 -14 c9 -25 3 -66 -10 -66 -12 0 -40 29 -40 41 0
17 20 49 31 49 5 0 14 -11 19 -24z m3536 13 c24 -6 47 -16 51 -22 8 -13 -33
-47 -58 -47 -19 0 -89 56 -89 71 0 12 42 11 96 -2z m-4668 -17 c2 -7 -3 -12
-12 -12 -9 0 -16 7 -16 16 0 17 22 14 28 -4z m-130 -28 c-5 -28 -28 -29 -28
-1 0 13 3 27 7 31 10 10 25 -10 21 -30z m66 27 c3 -5 -1 -14 -8 -20 -16 -13
-32 2 -21 19 8 12 22 13 29 1z m903 -15 c-5 -15 -50 -36 -92 -43 -53 -8 -44
14 16 42 50 23 83 24 76 1z m361 -3 c-4 -34 -28 -43 -28 -10 0 25 7 37 22 37
5 0 8 -12 6 -27z m-1775 -22 c21 -36 21 -38 -2 -51 -23 -12 -51 -3 -51 16 0
17 21 64 29 64 4 0 14 -13 24 -29z m-99 -20 c13 -25 13 -31 1 -41 -11 -9 -16
-7 -25 10 -10 18 -6 60 5 60 3 0 11 -13 19 -29z m1133 23 c36 -10 16 -24 -35
-24 -26 0 -85 -9 -132 -20 -95 -22 -120 -24 -120 -11 0 32 217 73 287 55z
m4093 -8 c0 -8 -4 -17 -8 -20 -13 -8 -35 11 -28 23 10 16 36 14 36 -3z m-5892
-36 c40 -59 23 -97 -59 -130 -29 -12 -33 -12 -49 8 -18 22 -36 90 -26 100 3 3
14 -2 24 -11 10 -10 24 -17 30 -17 16 0 32 33 32 65 0 34 18 29 48 -15z m5727
27 c12 -10 15 -16 6 -21 -16 -10 -51 3 -51 20 0 18 21 18 45 1z m-4245 -17 c0
-10 -26 -20 -51 -20 -24 0 -25 27 -1 32 22 5 52 -2 52 -12z m-860 -14 c0 -8
-4 -18 -10 -21 -5 -3 -10 3 -10 14 0 12 5 21 10 21 6 0 10 -6 10 -14z m470 9
c0 -3 -10 -9 -22 -14 -53 -20 -68 -22 -68 -11 0 6 10 15 23 20 24 10 67 13 67
5z m1150 -35 c0 -46 -17 -59 -56 -42 -48 22 -24 81 34 82 19 0 22 -5 22 -40z
m124 24 c18 -48 -5 -94 -49 -94 -24 0 -40 33 -30 64 3 9 7 23 10 31 6 20 61
20 69 -1z m3473 -6 c21 -20 22 -23 6 -40 -21 -24 -40 -23 -48 2 -7 21 2 60 13
60 3 0 16 -10 29 -22z m111 5 c2 -8 -5 -13 -17 -13 -12 0 -21 6 -21 16 0 18
31 15 38 -3z m-4560 -5 c-5 -15 -48 -24 -48 -10 0 14 12 22 33 22 10 0 17 -5
15 -12z m-1614 -29 c31 -36 34 -87 9 -130 -35 -58 -78 -43 -115 39 -23 52 -17
64 17 32 13 -13 31 -20 39 -17 21 8 31 54 17 83 -15 33 2 30 33 -7z m2356 22
c0 -33 -14 -41 -67 -41 -40 0 -62 -6 -80 -20 -32 -25 -43 -25 -43 0 0 22 27
40 62 41 13 0 39 6 58 13 43 17 70 19 70 7z m-1710 -12 c0 -6 -7 -18 -16 -26
-9 -10 -13 -25 -10 -39 7 -26 4 -29 -46 -38 -31 -6 -38 -4 -38 9 0 9 7 18 15
21 8 4 15 11 15 16 0 21 42 68 61 68 10 0 19 -5 19 -11z m157 -4 c7 -21 2 -25
-43 -32 l-39 -6 24 27 c28 29 49 33 58 11z m373 -5 c0 -15 -7 -20 -26 -20
l-26 0 23 20 c30 24 29 24 29 0z m4816 -24 c7 -29 -11 -66 -31 -66 -10 0 -14
10 -13 33 1 19 -2 39 -6 45 -4 7 -4 17 -1 22 10 16 44 -7 51 -34z m-4453 19
c1 -5 -14 -11 -33 -13 -33 -3 -34 -3 -15 12 22 17 45 17 48 1z m-143 -19 c0
-16 -18 -31 -27 -22 -8 8 5 36 17 36 5 0 10 -6 10 -14z m-907 -46 c10 -17 15
-35 12 -40 -10 -16 -33 -12 -44 7 -8 15 -12 12 -27 -20 -22 -45 -47 -48 -64
-7 -17 40 -6 49 24 21 l24 -23 7 24 c10 28 35 68 44 68 4 0 15 -14 24 -30z
m606 26 c-12 -10 -59 -15 -59 -6 0 5 14 10 32 10 17 0 29 -2 27 -4z m2973 -8
c-6 -6 -40 -14 -74 -16 -43 -3 -60 -1 -53 6 13 13 41 19 95 21 34 1 41 -2 32
-11z m-4233 -84 c34 -55 34 -57 15 -71 -60 -47 -168 -69 -192 -40 -6 6 -13 24
-17 39 -9 37 13 45 74 29 41 -11 47 -10 59 6 13 17 12 30 -4 98 -7 29 -6 29
12 13 10 -9 35 -42 53 -74z m1442 38 c-11 -20 -58 -35 -67 -21 -2 4 9 15 25
24 22 11 29 20 24 33 -5 16 -5 16 12 1 13 -13 15 -21 6 -37z m-291 29 c0 -9
-33 -21 -57 -21 -7 0 -13 7 -13 15 0 10 11 15 35 15 19 0 35 -4 35 -9z m1477
-27 c5 -15 -35 -64 -52 -64 -8 0 -22 14 -31 32 -15 29 -15 32 0 43 18 14 77 6
83 -11z m-137 -20 l0 -35 -47 3 c-46 3 -48 4 -51 36 l-3 32 50 0 51 0 0 -36z
m-2034 -1 c-4 -10 2 -25 15 -39 19 -20 20 -24 6 -30 -25 -9 -59 -1 -71 18 -8
13 -5 23 14 43 27 28 45 33 36 8z m1842 5 c-7 -19 -55 -51 -69 -46 -10 3 -5
13 15 31 30 28 61 36 54 15z m62 1 c0 -23 -22 -49 -40 -49 -27 0 -25 25 2 44
26 19 38 20 38 5z m-1380 -18 c0 -8 -74 -31 -99 -31 -20 0 -11 20 12 30 29 11
87 12 87 1z m-734 -66 c7 -19 14 -44 14 -57 0 -38 -28 0 -36 50 -8 51 2 55 22
7z m138 9 c8 -21 -11 -44 -35 -44 -23 0 -24 9 -3 38 18 26 30 28 38 6z m431 1
c-10 -9 -43 -23 -72 -32 -52 -16 -77 -13 -56 8 11 11 96 36 128 37 20 1 20 1
0 -13z m2165 3 c-1 -7 -20 -25 -44 -40 -37 -24 -54 -28 -116 -28 -40 0 -110
-8 -156 -17 -73 -15 -109 -14 -92 2 6 7 124 42 198 60 30 7 66 18 80 23 37 16
130 15 130 0z m-625 -38 c0 -22 -6 -25 -50 -33 -27 -4 -54 -12 -59 -18 -18
-17 -38 -10 -34 13 2 14 13 24 30 29 15 4 35 15 44 24 9 9 28 15 43 13 20 -2
26 -8 26 -28z m110 20 c10 -16 -43 -36 -58 -21 -9 9 -9 14 3 21 20 13 47 13
55 0z m-3504 -44 c125 -65 118 -88 -39 -140 -35 -12 -65 -25 -65 -31 -1 -5 18
-12 43 -15 39 -4 41 -6 20 -12 -43 -13 -62 -9 -142 30 -60 28 -80 43 -85 62
-3 14 -11 28 -17 32 -15 10 20 45 79 80 63 37 126 35 206 -6z m609 20 c0 -2 3
-11 6 -20 4 -11 1 -16 -10 -16 -9 0 -16 2 -16 4 0 2 -3 11 -6 20 -4 11 -1 16
10 16 9 0 16 -2 16 -4z m164 -12 c41 -16 2 -66 -83 -109 -34 -17 -35 -17 -53
5 -25 31 -24 54 3 47 14 -4 29 4 52 28 32 34 51 40 81 29z m926 -4 c0 -11 -33
-30 -52 -30 -7 1 -3 9 11 20 25 22 41 26 41 10z m-476 -9 c9 -14 -4 -41 -19
-41 -21 0 -28 19 -15 35 14 17 26 19 34 6z m3076 0 c0 -16 -14 -20 -91 -30
-168 -21 -169 -21 -169 -6 0 15 19 20 135 34 99 12 125 12 125 2z m-3176 -27
c8 -30 -8 -54 -35 -54 -24 0 -24 14 -2 51 21 36 29 36 37 3z m468 1 c0 -5 -5
-11 -11 -13 -6 -2 -11 4 -11 13 0 9 5 15 11 13 6 -2 11 -8 11 -13z m1938 7 c0
-5 -9 -17 -19 -26 -22 -20 -40 -4 -21 19 13 16 40 20 40 7z m-1992 -26 c3 -12
-1 -17 -10 -14 -7 3 -15 13 -16 22 -3 12 1 17 10 14 7 -3 15 -13 16 -22z
m2468 -32 c-7 -19 -36 -18 -36 1 0 8 -4 15 -9 15 -5 0 -11 -7 -15 -15 -11 -28
-86 -11 -86 20 0 17 31 20 46 5 8 -8 15 -6 23 4 7 8 19 12 26 10 8 -3 22 -1
32 5 15 8 19 6 21 -10 2 -11 1 -27 -2 -35z m-609 1 c-2 -31 -5 -35 -31 -35
-24 0 -27 2 -16 15 10 13 9 15 -9 15 -28 0 -27 14 2 28 43 21 56 15 54 -23z
m-1917 10 c0 -8 -4 -15 -10 -15 -5 0 -10 7 -10 15 0 8 5 15 10 15 6 0 10 -7
10 -15z m1666 -12 c-8 -16 -26 -39 -41 -53 -15 -14 -31 -35 -36 -48 -9 -23
-35 -39 -46 -29 -9 9 115 157 131 157 4 0 0 -12 -8 -27z m682 15 c-6 -17 -33
-22 -66 -12 l-27 7 30 7 c48 12 67 11 63 -2z m-2778 -12 c0 -17 -63 -56 -90
-56 -31 0 -33 19 -3 31 15 6 39 17 53 24 33 18 40 18 40 1z m767 8 c-3 -3 -12
-4 -19 -1 -8 3 -5 6 6 6 11 1 17 -2 13 -5z m803 -9 c-8 -9 -28 -15 -54 -14
l-41 1 30 13 c17 8 41 14 54 15 20 0 21 -2 11 -15z m641 -1 c11 -14 10 -18 -6
-30 -25 -18 -44 -18 -51 1 -15 39 30 62 57 29z m-2707 -16 c8 -14 5 -24 -19
-49 -59 -63 -194 -103 -209 -63 -11 28 -7 34 23 34 22 0 30 6 35 25 4 16 11
22 21 18 9 -3 23 1 33 10 26 23 75 47 91 44 8 -1 19 -10 25 -19z m300 -18 c21
-52 21 -66 0 -49 -21 17 -42 61 -37 77 8 22 21 13 37 -28z m586 31 c0 -14 -18
-23 -30 -16 -6 4 -8 11 -5 16 8 12 35 12 35 0z m265 -17 c-23 -17 -109 -44
-139 -44 -36 0 -2 20 75 45 77 24 98 24 64 -1z m1806 -13 c-11 -15 -32 -36
-47 -45 -14 -10 -23 -20 -20 -23 8 -8 76 26 111 55 19 16 31 20 33 12 2 -6 -1
-17 -7 -23 -8 -8 -6 -16 6 -29 15 -17 15 -18 -10 -18 -15 0 -27 -4 -27 -8 0
-15 24 -32 47 -32 19 0 23 -5 23 -28 0 -38 -8 -44 -34 -27 -28 20 -97 19 -157
-2 -50 -18 -66 -15 -56 12 4 9 19 15 39 16 31 0 31 1 9 10 -13 5 -36 18 -51
29 -31 22 -61 25 -91 10 -26 -15 -24 -30 5 -30 34 0 41 -17 10 -24 -26 -7
-156 30 -162 46 -2 4 -12 8 -22 8 -23 0 -36 18 -22 32 6 6 27 1 60 -16 28 -14
54 -26 57 -26 3 0 5 15 5 33 0 31 4 35 39 46 46 13 64 8 85 -24 l16 -24 61 27
c34 14 69 36 78 49 9 12 22 23 29 23 9 0 7 -9 -7 -29z m-2151 0 c0 -5 -17 -15
-37 -22 -21 -6 -44 -16 -51 -22 -7 -5 -15 -7 -18 -4 -11 11 6 25 36 32 16 4
32 11 35 16 8 12 35 12 35 0z m1128 2 c-10 -2 -26 -2 -35 0 -10 3 -2 5 17 5
19 0 27 -2 18 -5z m1657 -43 c90 -15 101 -27 34 -34 -282 -27 -304 -26 -262
15 39 39 88 43 228 19z m-3341 -1 c-9 -16 -96 -69 -112 -69 -21 0 -4 19 46 51
46 29 79 38 66 18z m2876 -3 c0 -20 -26 -40 -35 -26 -10 16 2 40 20 40 8 0 15
-6 15 -14z m58 -22 c-25 -25 -42 -14 -22 14 12 17 19 21 27 13 8 -8 7 -16 -5
-27z m-3961 -5 c49 -20 69 -41 57 -60 -3 -5 -13 -9 -22 -9 -9 0 -44 -13 -77
-30 -32 -16 -83 -34 -112 -40 -55 -12 -67 -24 -33 -35 23 -7 27 -35 6 -35 -22
0 -98 61 -124 100 -35 52 -18 88 54 116 39 15 48 15 70 3 22 -11 29 -11 52 3
30 19 54 16 129 -13z m1393 17 c0 -8 -4 -17 -8 -20 -13 -8 -35 11 -28 23 10
16 36 14 36 -3z m40 4 c0 -5 -4 -10 -10 -10 -5 0 -10 5 -10 10 0 6 5 10 10 10
6 0 10 -4 10 -10z m2643 -20 c-6 -22 -33 -28 -33 -7 0 16 21 38 31 32 4 -3 5
-14 2 -25z m-53 16 c0 -2 -7 -9 -15 -16 -12 -10 -15 -10 -15 4 0 9 7 16 15 16
8 0 15 -2 15 -4z m-3574 -27 c50 -31 60 -55 37 -88 -26 -35 -99 -71 -145 -71
-37 0 -38 1 -34 32 3 27 10 34 55 52 52 21 52 21 47 59 -7 43 -5 44 40 16z
m384 -19 c0 -28 -5 -43 -16 -47 -28 -10 -37 11 -20 51 20 48 36 46 36 -4z
m755 13 c-11 -3 -25 -9 -32 -15 -11 -9 -322 -88 -346 -88 -7 0 -8 3 -1 10 12
12 341 99 374 98 20 0 21 -1 5 -5z m-328 -19 c-3 -3 -12 -4 -19 -1 -8 3 -5 6
6 6 11 1 17 -2 13 -5z m-170 -30 c-3 -3 -12 -4 -19 -1 -8 3 -5 6 6 6 11 1 17
-2 13 -5z m2823 -9 c0 -15 -38 -41 -47 -32 -2 3 0 15 7 26 12 24 40 28 40 6z
m128 -6 c12 -5 22 -16 22 -25 0 -14 -7 -16 -45 -10 -64 8 -90 23 -74 42 12 15
44 13 97 -7z m-3283 -29 c-5 -8 -11 -8 -17 -2 -6 6 -7 16 -3 22 5 8 11 8 17 2
6 -6 7 -16 3 -22z m-564 -47 c65 -62 99 -107 99 -133 0 -22 -21 -8 -37 25 -9
19 -20 35 -24 35 -3 0 -33 -16 -65 -35 -101 -61 -157 -66 -183 -16 -14 25 -5
31 46 31 47 0 48 2 33 31 -9 15 -7 19 7 18 10 0 27 -4 38 -8 33 -14 47 6 30
40 -26 50 -35 79 -25 79 5 0 42 -30 81 -67z m789 47 c0 -5 -4 -10 -10 -10 -5
0 -10 5 -10 10 0 6 5 10 10 10 6 0 10 -4 10 -10z m-265 -9 c7 -12 -12 -24 -25
-16 -11 7 -4 25 10 25 5 0 11 -4 15 -9z m-49 -12 c10 -17 -13 -36 -27 -22 -12
12 -4 33 11 33 5 0 12 -5 16 -11z m254 1 c0 -5 -4 -10 -9 -10 -6 0 -13 5 -16
10 -3 6 1 10 9 10 9 0 16 -4 16 -10z m-356 -22 c8 -13 7 -21 -1 -29 -16 -16
-43 5 -43 33 0 24 28 21 44 -4z m304 0 c-6 -18 -28 -21 -28 -4 0 9 7 16 16 16
9 0 14 -5 12 -12z m-66 -30 c-7 -7 -12 -8 -12 -2 0 14 12 26 19 19 2 -3 -1
-11 -7 -17z m-112 -18 c0 -5 -4 -10 -10 -10 -5 0 -10 5 -10 10 0 6 5 10 10 10
6 0 10 -4 10 -10z m285 -10 c3 -5 -7 -12 -22 -15 -15 -4 -36 -10 -45 -16 -26
-13 -60 -11 -56 4 3 6 27 17 54 24 64 15 62 15 69 3z m-1005 -19 c0 -6 -4 -13
-10 -16 -5 -3 -10 1 -10 9 0 9 5 16 10 16 6 0 10 -4 10 -9z m476 -16 c-22 -17
-46 -20 -46 -6 0 10 22 18 50 20 11 0 10 -4 -4 -14z m344 -5 c0 -13 -48 -32
-69 -27 -11 3 -4 9 19 20 42 19 50 20 50 7z m-907 -49 c41 -28 142 -129 136
-135 -12 -11 -69 9 -74 24 -3 10 -13 24 -21 31 -12 10 -20 7 -47 -19 -33 -32
-93 -62 -123 -62 -19 0 -54 27 -54 42 0 4 8 8 18 8 10 0 27 6 37 14 11 8 25
12 31 9 20 -7 47 43 41 76 -5 26 -1 41 10 41 3 0 23 -13 46 -29z m717 -13
c-32 -12 -51 -3 -20 10 14 5 29 7 34 4 5 -3 -1 -9 -14 -14z m-130 -42 c0 -8
-14 -19 -31 -25 -40 -14 -39 -14 -39 4 0 8 9 15 20 15 11 0 20 5 20 10 0 6 7
10 15 10 8 0 15 -6 15 -14z m-780 -10 c0 -3 -4 -8 -10 -11 -5 -3 -10 -1 -10 4
0 6 5 11 10 11 6 0 10 -2 10 -4z m500 -21 c0 -8 -4 -15 -10 -15 -5 0 -10 7
-10 15 0 8 5 15 10 15 6 0 10 -7 10 -15z m-606 -30 c3 -8 3 -22 0 -30 -5 -11
-2 -13 10 -9 20 8 66 -21 66 -41 0 -18 -54 -59 -104 -80 -36 -15 -40 -15 -60
3 -11 11 -35 27 -53 36 l-32 16 30 30 c17 16 34 30 38 30 4 0 17 14 29 30 24
32 66 41 76 15z m796 -20 c0 -19 -28 -27 -51 -15 -10 6 -19 18 -18 28 0 10 3
12 6 5 7 -19 33 -16 33 3 0 14 3 14 15 4 8 -7 15 -18 15 -25z m-262 7 c2 -7
-6 -12 -17 -12 -21 0 -27 11 -14 24 9 9 26 2 31 -12z m118 -48 c-15 -14 -31
-22 -35 -19 -7 7 39 45 54 44 6 0 -3 -11 -19 -25z m-76 -30 c0 -16 -16 -19
-25 -4 -8 13 4 32 16 25 5 -4 9 -13 9 -21z m-805 -13 c-3 -5 -22 -15 -43 -22
-20 -6 -66 -25 -102 -42 -103 -49 -100 -48 -100 -32 0 18 54 46 152 79 78 27
103 31 93 17z m560 -1 c-3 -5 -10 -10 -15 -10 -5 0 -21 -12 -35 -26 -24 -24
-58 -30 -59 -9 -1 15 65 55 91 55 14 0 21 -4 18 -10z m95 -40 c0 -5 -4 -10
-10 -10 -5 0 -10 5 -10 10 0 6 5 10 10 10 6 0 10 -4 10 -10z m-618 -15 c0 -5
-5 -11 -11 -13 -6 -2 -11 4 -11 13 0 9 5 15 11 13 6 -2 11 -8 11 -13z m26 -60
c-12 -26 -42 -33 -54 -13 -8 13 22 38 48 38 15 0 16 -3 6 -25z m71 -19 c17
-18 19 -26 10 -32 -7 -4 -19 2 -31 16 -34 42 -17 56 21 16z m144 -31 c1 -5 -6
-11 -15 -13 -11 -2 -18 3 -18 13 0 17 30 18 33 0z m-476 -59 c15 -8 42 -20 58
-27 l30 -13 -33 -4 c-35 -4 -103 25 -110 46 -5 16 20 15 55 -2z m271 -53 c18
-19 22 -28 13 -31 -14 -5 -62 27 -69 46 -7 22 29 12 56 -15z m-393 -27 c45
-10 85 -27 85 -37 0 -16 -38 -10 -95 15 -52 24 -75 43 -37 33 9 -3 31 -8 47
-11z m-5 -73 c12 -11 11 -13 -11 -13 -29 0 -72 27 -64 40 6 10 52 -6 75 -27z
m-109 -28 c-1 -15 -24 -12 -29 3 -3 9 2 13 12 10 10 -1 17 -7 17 -13z m296
-21 c-3 -3 -12 -4 -19 -1 -8 3 -5 6 6 6 11 1 17 -2 13 -5z m-327 -26 c54 -37
49 -53 -8 -24 -28 14 -53 30 -57 36 -11 18 32 10 65 -12z m180 -24 c43 -17 58
-51 18 -38 -34 10 -76 32 -83 44 -9 15 19 12 65 -6z m-201 -29 c34 -17 41 -35
14 -35 -28 0 -143 43 -143 53 0 14 93 1 129 -18z m-71 -46 c52 -17 39 -33 -20
-26 -72 7 -117 25 -98 38 16 10 63 5 118 -12z m230 -48 c3 -8 -1 -12 -9 -9 -7
2 -15 10 -17 17 -3 8 1 12 9 9 7 -2 15 -10 17 -17z m-40 -40 c3 -10 -2 -11
-19 -6 -39 12 -48 27 -15 23 16 -2 31 -9 34 -17z m-308 -51 c0 -6 -7 -13 -15
-16 -20 -8 -48 3 -40 16 8 13 55 13 55 0z m140 -10 c0 -5 -13 -10 -30 -10 -16
0 -30 5 -30 10 0 6 14 10 30 10 17 0 30 -4 30 -10z m-48 -26 c17 -11 7 -24
-18 -24 -30 0 -64 16 -64 31 0 11 63 4 82 -7z m158 -14 c0 -5 -7 -10 -15 -10
-8 0 -15 5 -15 10 0 6 7 10 15 10 8 0 15 -4 15 -10z m-229 -40 c10 -6 19 -15
19 -20 0 -17 -47 -11 -71 10 l-24 19 28 1 c16 0 37 -5 48 -10z m169 -55 c0 -9
-9 -15 -25 -15 -16 0 -25 6 -25 15 0 9 9 15 25 15 16 0 25 -6 25 -15z m-215
-5 c26 -10 26 -30 0 -30 -26 0 -66 20 -60 30 8 13 27 13 60 0z m158 -47 c29
-16 30 -18 10 -21 -25 -4 -63 14 -63 28 0 15 17 12 53 -7z m-97 -33 c123 -32
125 -52 3 -30 -30 5 -70 12 -90 15 -19 3 -44 12 -55 20 -18 13 -16 14 22 15
22 0 76 -9 120 -20z m-71 -50 c-3 -5 -24 -10 -46 -10 -21 0 -39 5 -39 10 0 6
21 10 46 10 27 0 43 -4 39 -10z m75 -150 c10 -7 -5 -9 -50 -9 -51 1 -58 3 -35
9 43 11 68 11 85 0z m63 -61 c-12 -12 -193 -26 -193 -15 0 15 49 25 124 25 59
1 77 -2 69 -10z m17 -58 c0 -18 -193 -33 -198 -16 -1 6 14 13 35 16 62 10 163
10 163 0z m20 -95 c0 -15 -21 -26 -51 -26 -24 0 -25 16 -1 29 25 15 52 13 52
-3z m215 -315 c3 -5 1 -12 -5 -16 -5 -3 -10 1 -10 9 0 18 6 21 15 7z m30 -91
c-5 -8 -11 -8 -17 -2 -6 6 -7 16 -3 22 5 8 11 8 17 2 6 -6 7 -16 3 -22z m100
-41 c-4 -5 -14 -5 -26 1 -11 6 -17 15 -14 21 4 5 14 5 26 -1 11 -6 17 -15 14
-21z m579 -38 c7 -11 -17 -21 -49 -21 -27 0 -42 16 -23 23 22 9 67 7 72 -2z
m321 -31 c4 -6 -20 -10 -64 -10 -41 0 -71 4 -71 10 0 6 28 10 64 10 36 0 68
-4 71 -10z"/>
<path d="M6916 5021 c-4 -5 -2 -12 3 -15 5 -4 12 -2 15 3 4 5 2 12 -3 15 -5 4
-12 2 -15 -3z"/>
<path d="M8750 5340 c-8 -5 -12 -12 -8 -15 12 -13 86 -17 104 -7 18 10 17 11
-9 21 -35 13 -67 14 -87 1z"/>
<path d="M6764 5344 c-18 -14 -14 -15 46 -9 90 9 112 24 34 25 -40 0 -67 -5
-80 -16z"/>
<path d="M6876 5282 c-9 -18 -15 -39 -13 -45 2 -7 12 3 21 21 9 18 15 39 13
45 -2 7 -12 -3 -21 -21z"/>
<path d="M6795 5260 c-7 -23 2 -43 16 -35 12 8 12 42 0 50 -5 3 -12 -4 -16
-15z"/>
<path d="M6724 5165 c-18 -14 -18 -14 7 -15 40 0 89 11 89 21 0 15 -75 10 -96
-6z"/>
<path d="M6765 5129 c-16 -4 -42 -11 -57 -14 -16 -3 -28 -10 -28 -16 0 -8 16
-9 50 -5 64 9 80 15 80 32 0 15 -2 16 -45 3z"/>
<path d="M6256 4721 c-4 -7 -5 -15 -2 -18 9 -9 19 4 14 18 -4 11 -6 11 -12 0z"/>
<path d="M5914 4679 c-11 -18 13 -34 31 -19 8 7 15 16 15 21 0 13 -38 11 -46
-2z"/>
<path d="M6192 4664 c-12 -8 -22 -19 -22 -25 0 -17 39 -9 50 10 19 36 9 41
-28 15z"/>
<path d="M7245 4970 c3 -5 15 -10 25 -10 10 0 20 -4 22 -9 3 -10 28 -14 66
-12 37 2 26 28 -15 35 -58 9 -105 7 -98 -4z"/>
<path d="M5158 4998 c-16 -5 -28 -17 -28 -25 0 -10 6 -13 16 -9 9 3 33 9 54
12 l38 6 -5 -38 c-4 -33 1 -46 29 -84 l33 -45 3 84 c2 46 1 90 -2 98 -6 16
-97 17 -138 1z"/>
<path d="M9125 4649 c19 -28 35 -62 35 -74 0 -32 10 -56 21 -49 29 18 -5 121
-51 154 -43 30 -44 25 -5 -31z"/>
<path d="M11030 4360 c6 -11 15 -20 20 -20 6 0 5 9 -2 20 -7 11 -16 20 -21 20
-4 0 -3 -9 3 -20z"/>
<path d="M3368 4263 c-53 -22 -49 -37 9 -29 54 7 58 10 50 31 -8 18 -12 18
-59 -2z"/>
<path d="M2663 3970 c-40 -18 -57 -40 -32 -40 23 0 117 31 135 45 18 13 16 14
-21 14 -22 1 -59 -8 -82 -19z"/>
<path d="M2373 3854 c-40 -20 -47 -49 -8 -34 36 14 85 40 85 45 0 11 -47 4
-77 -11z"/>
<path d="M2463 3800 c-61 -27 -53 -39 18 -24 86 18 97 23 79 34 -23 14 -51 12
-97 -10z"/>
<path d="M8875 3900 c3 -5 15 -10 26 -10 10 0 19 5 19 10 0 6 -12 10 -26 10
-14 0 -23 -4 -19 -10z"/>
<path d="M8950 3875 c-19 -19 -30 -35 -25 -35 13 0 75 50 75 61 0 17 -16 9
-50 -26z"/>
<path d="M8775 3881 c-3 -5 -1 -12 4 -15 12 -8 41 3 41 15 0 12 -37 12 -45 0z"/>
<path d="M1588 3370 c-36 -11 -49 -20 -43 -30 6 -10 103 14 118 29 13 13 -34
14 -75 1z"/>
<path d="M2820 3390 c0 -5 5 -10 11 -10 5 0 7 5 4 10 -3 6 -8 10 -11 10 -2 0
-4 -4 -4 -10z"/>
<path d="M1323 3184 c-32 -14 -49 -31 -40 -40 7 -8 87 35 87 46 0 13 -7 12
-47 -6z"/>
<path d="M8070 5435 c0 -8 2 -15 4 -15 2 0 6 7 10 15 3 8 1 15 -4 15 -6 0 -10
-7 -10 -15z"/>
<path d="M8516 5389 c-37 -29 -34 -49 7 -49 36 0 67 25 67 53 0 24 -41 22 -74
-4z"/>
<path d="M6488 5323 c-37 -10 -16 -23 38 -23 40 0 55 4 52 13 -5 12 -59 19
-90 10z"/>
<path d="M8068 5263 c7 -3 16 -2 19 1 4 3 -2 6 -13 5 -11 0 -14 -3 -6 -6z"/>
<path d="M8168 5263 c6 -2 18 -2 25 0 6 3 1 5 -13 5 -14 0 -19 -2 -12 -5z"/>
<path d="M6521 5192 c-7 -18 -27 -44 -44 -58 -21 -18 -27 -28 -19 -36 7 -7 3
-17 -16 -34 -15 -13 -21 -24 -14 -24 26 0 102 22 110 34 5 6 7 43 3 81 l-6 70
-14 -33z"/>
<path d="M11490 5067 c0 -8 3 -17 8 -21 4 -4 14 -28 23 -54 17 -50 39 -67 39
-30 1 68 41 60 76 -16 29 -63 22 -91 -27 -120 -16 -10 -41 -35 -55 -56 -37
-56 -23 -99 21 -66 16 12 17 16 6 29 -16 20 -9 32 34 52 40 20 85 81 85 118 0
34 14 34 45 2 30 -29 32 -64 5 -98 -23 -29 -25 -37 -9 -37 20 0 69 62 69 86 0
29 29 33 53 6 21 -23 21 -35 2 -72 -20 -38 -8 -38 33 0 18 17 35 30 37 30 1 0
35 -13 73 -30 72 -30 112 -38 112 -21 0 21 -34 41 -98 60 -37 11 -103 39 -145
61 -43 22 -86 40 -96 40 -21 0 -131 65 -148 87 -11 14 -116 63 -135 63 -5 0
-8 -6 -8 -13z"/>
<path d="M6223 5028 c-4 -7 -8 -19 -10 -27 -1 -8 -9 -18 -17 -23 -20 -11 -21
-38 -1 -38 8 0 15 4 15 9 0 4 20 16 45 25 52 20 61 31 45 51 -15 18 -66 20
-77 3z"/>
<path d="M4853 4956 c-15 -13 -51 -35 -80 -49 -51 -26 -70 -43 -59 -54 17 -17
165 68 186 106 15 30 -10 28 -47 -3z"/>
<path d="M11627 4716 c-4 -10 -5 -21 -2 -24 9 -9 17 6 13 25 -3 17 -4 17 -11
-1z"/>
<path d="M12297 4533 c-4 -3 -7 -15 -7 -25 0 -14 5 -18 18 -14 12 4 20 -1 27
-17 13 -29 50 -38 41 -9 -4 11 -2 23 3 26 5 4 12 -3 16 -14 3 -11 13 -20 20
-20 8 0 30 -9 49 -21 l36 -21 0 31 c0 24 3 29 18 25 14 -5 14 -3 -2 10 -11 9
-27 16 -36 16 -9 0 -43 9 -75 20 -60 21 -97 25 -108 13z"/>
<path d="M3792 4444 c-24 -17 -29 -34 -10 -34 21 0 98 32 98 41 0 15 -64 10
-88 -7z"/>
<path d="M3603 4353 c-14 -5 -18 -33 -5 -33 24 1 52 14 52 26 0 14 -23 17 -47
7z"/>
<path d="M2136 3725 c-51 -18 -68 -35 -35 -35 34 0 119 29 119 41 0 13 -39 10
-84 -6z"/>
<path d="M1852 3595 c-92 -43 -88 -64 5 -30 68 26 93 41 93 56 0 15 -23 9 -98
-26z"/>
<path d="M2264 3604 c-18 -15 -18 -15 11 -9 37 8 57 25 29 25 -11 0 -29 -7
-40 -16z"/>
<path d="M1900 3511 c-45 -9 -89 -33 -72 -39 12 -4 127 13 165 24 9 3 15 10
12 15 -7 10 -53 10 -105 0z"/>
</g>
</svg>
